<svg width="18" height="18" viewBox="0 0 18 18" fill="none" xmlns="http://www.w3.org/2000/svg">
<path fill-rule="evenodd" clip-rule="evenodd" d="M5.35348 9.35355L6.06058 10.0607L5.20703 10.9142V14.5L5.91414 15.2071H12.4999L13.207 14.5V10.9142L12.3535 10.0607L13.0606 9.35355L14.207 10.5V14.9142L12.9141 16.2071H5.49992L4.20703 14.9142V10.5L5.35348 9.35355Z" fill="white"/>
<path d="M9.25954 8.4027C9.23937 8.50214 9.22182 8.60361 9.20703 8.70711C9.20703 8.62222 9.22504 8.51933 9.25954 8.4027C9.92141 5.13927 13.3983 4.04537 14.207 4.20711V2.20711L16.707 4.70711L14.207 7.20711V5.20711C11.9192 4.29199 9.63145 7.14534 9.25954 8.4027Z" fill="white"/>
<path fill-rule="evenodd" clip-rule="evenodd" d="M13.707 1L17.4141 4.70711L13.707 8.41421V5.57482C12.9097 5.40155 12.0832 5.74877 11.3355 6.37383C10.4995 7.07278 9.90635 8.00636 9.74506 8.52459C9.7287 8.60731 9.71431 8.69171 9.70201 8.77782L8.70703 8.70711C8.70703 8.56494 8.73472 8.41949 8.77374 8.28267C9.14351 6.49331 10.2819 5.30678 11.4124 4.59701C11.9796 4.24085 12.5535 3.99864 13.0463 3.85538C13.2726 3.78963 13.4979 3.73997 13.707 3.71347V1ZM14.4491 4.76543L14.707 4.86859V6L15.9999 4.70711L14.707 3.41421V4.81701L14.4491 4.76543Z" fill="white"/>
<path d="M9.15452 8.4027C9.17469 8.50214 9.19225 8.60361 9.20703 8.70711C9.20703 8.62222 9.18902 8.51933 9.15452 8.4027C8.49265 5.13927 5.01572 4.04537 4.20703 4.20711V2.20711L1.70703 4.70711L4.20703 7.20711V5.20711C6.49482 4.29199 8.78261 7.14534 9.15452 8.4027Z" fill="white"/>
<path fill-rule="evenodd" clip-rule="evenodd" d="M4.70703 1L0.999925 4.70711L4.70703 8.41421V5.57482C5.50434 5.40155 6.33089 5.74877 7.07853 6.37383C7.91456 7.07278 8.50772 8.00636 8.66901 8.52459C8.68536 8.60731 8.69976 8.69171 8.71206 8.77782L9.70703 8.70711C9.70703 8.56494 9.67934 8.41949 9.64032 8.28267C9.27055 6.49331 8.13213 5.30678 7.00171 4.59701C6.43446 4.24085 5.86061 3.99864 5.36772 3.85538C5.14148 3.78963 4.91612 3.73997 4.70703 3.71347V1ZM3.96494 4.76543L3.70703 4.86859V6L2.41414 4.70711L3.70703 3.41421V4.81701L3.96494 4.76543Z" fill="white"/>
</svg>
