<svg width="18" height="18" viewBox="0 0 18 18" fill="none" xmlns="http://www.w3.org/2000/svg">
<g clip-path="url(#clip0_79_211)">
<path fill-rule="evenodd" clip-rule="evenodd" d="M10.1042 10.6227L8.12857 10.6117C8.03663 10.6112 7.94868 10.5742 7.88414 10.5089C7.81954 10.4435 7.78352 10.3551 7.78401 10.2632L7.7893 9.33899C7.57205 9.24172 7.36505 9.1205 7.1724 8.97753L6.36896 9.43537C6.25697 9.49915 6.1245 9.49368 6.02095 9.43259C5.97066 9.40291 5.92721 9.36016 5.89621 9.30583L4.91821 7.58953C4.87268 7.50965 4.86078 7.41496 4.88507 7.32634C4.90942 7.23769 4.96791 7.16238 5.04778 7.11686L5.8511 6.65909C5.82623 6.42027 5.8274 6.18112 5.85465 5.94381L5.0569 5.47714L5.05578 5.47648C4.97701 5.43001 4.91979 5.35431 4.89664 5.2658C4.87334 5.17689 4.88638 5.08231 4.93277 5.00297L5.93049 3.29769C6.02712 3.13254 6.23935 3.07694 6.40456 3.17356L7.20152 3.63965C7.2997 3.56784 7.39934 3.50335 7.50248 3.44456C7.60563 3.38578 7.71197 3.33295 7.82364 3.28515L7.82892 2.36197C7.83002 2.1706 7.98605 2.01634 8.17741 2.01738L10.1531 2.02838C10.2451 2.02891 10.333 2.06596 10.3976 2.13129C10.4622 2.19664 10.4983 2.28503 10.4977 2.37698L10.4924 3.3012C10.7102 3.3989 10.9172 3.52017 11.1095 3.66277L11.913 3.20497C11.9928 3.15941 12.0875 3.14752 12.1761 3.1718C12.2648 3.19622 12.3401 3.25468 12.3856 3.33452L13.3636 5.05087C13.4584 5.2171 13.4004 5.42876 13.2341 5.52354L12.4307 5.98129C12.4555 6.21988 12.4544 6.45904 12.4272 6.69657L13.2248 7.16291L13.2259 7.16359C13.3047 7.21004 13.3619 7.28578 13.3851 7.37429C13.4084 7.4632 13.3954 7.55774 13.3489 7.63712L12.3512 9.34239C12.3048 9.42176 12.2287 9.47936 12.1398 9.50265C12.0509 9.5259 11.9564 9.51294 11.8771 9.46651L11.0805 9.00043C10.9818 9.07256 10.8821 9.13718 10.7793 9.19574C10.6766 9.25437 10.5701 9.30714 10.4578 9.35524L10.4527 10.2781C10.4522 10.37 10.4153 10.458 10.3499 10.5226C10.2845 10.5872 10.1962 10.6233 10.1042 10.6227ZM9.27241 7.31188C9.74747 7.31188 10.1326 6.92677 10.1326 6.45172C10.1326 5.97666 9.74747 5.59156 9.27241 5.59156C8.79736 5.59156 8.41225 5.97666 8.41225 6.45172C8.41225 6.92677 8.79736 7.31188 9.27241 7.31188Z" fill="white"/>
</g>
<mask id="mask0_79_211" style="mask-type:alpha" maskUnits="userSpaceOnUse" x="1" y="9" width="15" height="9">
<rect x="1" y="9.00002" width="15" height="8.3" fill="#D9D9D9"/>
</mask>
<g mask="url(#mask0_79_211)">
<path d="M10.1811 10.8606L10.0997 14.5907L13.8775 11.3674L10.1811 10.8606Z" fill="white"/>
<rect width="1.67252" height="5.54391" transform="matrix(0.760733 -0.649065 -0.649065 -0.760733 14.5342 17.2035)" fill="white"/>
<path d="M1.18115 16.636L1.08573 12.9223L4.8636 16.1456L1.18115 16.636Z" fill="white"/>
<rect x="5.49561" y="10.3383" width="1.67252" height="5.50119" transform="rotate(40.4711 5.49561 10.3383)" fill="white"/>
</g>
<defs>
<clipPath id="clip0_79_211">
<rect width="8.60161" height="8.60161" fill="white" transform="translate(7.62207 0.430542) rotate(30.5411)"/>
</clipPath>
</defs>
</svg>
