<svg width="18" height="18" viewBox="0 0 18 18" fill="none" xmlns="http://www.w3.org/2000/svg">
<path d="M7.81082 17L8.06465 15.9286C7.73226 15.9286 7.4603 15.852 7.24878 15.699C7.03725 15.551 6.86804 15.3571 6.74112 15.1173C6.61421 14.8776 6.52658 14.6097 6.47823 14.3138C6.43593 14.0179 6.41477 13.7245 6.41477 13.4337V12.1633C6.40873 11.5561 6.23347 11.023 5.88899 10.5638C5.55055 10.0995 5.0157 9.74745 4.28444 9.50765C5.00966 9.26275 5.54451 8.90816 5.88899 8.44388C6.23951 7.97449 6.41477 7.43622 6.41477 6.82908V5.55867C6.41477 5.26786 6.42384 4.97449 6.44197 4.67857C6.46614 4.38265 6.53262 4.1148 6.6414 3.875C6.75019 3.6352 6.91638 3.44133 7.13999 3.29337C7.3636 3.14031 7.67182 3.06378 8.06465 3.06378L7.81082 2C7.21252 2.0051 6.69882 2.10714 6.26973 2.30612C5.84669 2.5 5.50523 2.75255 5.24536 3.06378C4.94318 3.40561 4.72259 3.80102 4.58359 4.25C4.44459 4.69898 4.37509 5.1352 4.37509 5.55867V6.82908C4.37509 7.53827 4.17868 8.04847 3.78585 8.35969C3.39907 8.67092 2.80378 8.82653 2 8.82653V10.1811C2.80378 10.1811 3.39907 10.3367 3.78585 10.648C4.17868 10.9592 4.37509 11.4643 4.37509 12.1633V13.4337C4.37509 13.8367 4.44157 14.2474 4.57453 14.6658C4.70749 15.0893 4.91599 15.4719 5.20003 15.8138C5.47803 16.1607 5.8346 16.4413 6.26973 16.6556C6.70486 16.875 7.21856 16.9898 7.81082 17Z" fill="white"/>
<path d="M9.92629 15.9286L10.1892 17C10.7814 16.9949 11.2951 16.8827 11.7303 16.6633C12.1654 16.4439 12.522 16.1607 12.8 15.8138C13.0719 15.477 13.2774 15.0969 13.4164 14.6735C13.5554 14.25 13.6249 13.8367 13.6249 13.4337V12.1633C13.6249 11.8776 13.6581 11.625 13.7246 11.4056C13.7911 11.1811 13.8908 10.9923 14.0238 10.8393C14.2111 10.6097 14.468 10.4439 14.7943 10.3418C15.1207 10.2347 15.5226 10.1811 16 10.1811V8.82653C15.5286 8.82653 15.1267 8.77551 14.7943 8.67347C14.4619 8.56633 14.2051 8.40306 14.0238 8.18367C13.8848 8.02551 13.782 7.83418 13.7156 7.60969C13.6551 7.3852 13.6249 7.125 13.6249 6.82908V5.55867C13.6249 5.15561 13.5614 4.74235 13.4345 4.31888C13.3137 3.89031 13.1112 3.5051 12.8272 3.16327C12.5552 2.81633 12.2017 2.53827 11.7665 2.32908C11.3374 2.1148 10.8117 2.0051 10.1892 2L9.93535 3.06378C10.3282 3.06378 10.6364 3.14031 10.86 3.29337C11.0836 3.44133 11.2498 3.6352 11.3586 3.875C11.4613 4.1148 11.5248 4.38265 11.549 4.67857C11.5792 4.97449 11.5943 5.26786 11.5943 5.55867V6.82908C11.5943 7.20153 11.6547 7.55102 11.7756 7.87755C11.9025 8.19898 12.0959 8.48724 12.3558 8.74235C12.5189 8.90051 12.7063 9.04592 12.9178 9.17857C13.1354 9.30612 13.3771 9.41582 13.643 9.50765C13.3409 9.6148 13.0719 9.7449 12.8362 9.89796C12.6066 10.0459 12.4102 10.2143 12.247 10.4031C12.0234 10.6429 11.8572 10.9133 11.7484 11.2143C11.6457 11.5102 11.5943 11.8265 11.5943 12.1633V13.4337C11.5943 13.7245 11.5671 14.0179 11.5127 14.3138C11.4644 14.6097 11.3767 14.8776 11.2498 15.1173C11.1229 15.3571 10.9507 15.551 10.7331 15.699C10.5216 15.852 10.2526 15.9286 9.92629 15.9286Z" fill="white"/>
</svg>
