<svg width="384" height="53" viewBox="0 0 384 53" fill="none" xmlns="http://www.w3.org/2000/svg">
<path d="M40.6015 52.6319V18.3292L27.839 43.8722H22.4395L9.67703 18.3292V52.6319H0V0.368054H10.3783L25.1042 30.1069L39.9703 0.368054H50.2785V52.6319H40.6015Z" fill="white"/>
<path d="M93.8415 43.725V52.6319H59.2707V0.368054H93.2104V9.275H68.9477V21.8625H89.9146V30.1069H68.9477V43.725H93.8415Z" fill="white"/>
<path d="M99.9834 52.6319V0.368054H118.075C123.498 0.368054 128.033 1.54583 131.679 3.90139C135.326 6.20787 138.06 9.34861 139.884 13.3236C141.707 17.2495 142.618 21.6171 142.618 26.4264C142.618 31.7264 141.613 36.3394 139.603 40.2653C137.593 44.1912 134.741 47.2338 131.048 49.3931C127.402 51.5523 123.077 52.6319 118.075 52.6319H99.9834ZM132.871 26.4264C132.871 23.0403 132.287 20.0713 131.118 17.5194C129.949 14.9185 128.266 12.9065 126.069 11.4833C123.872 10.0111 121.207 9.275 118.075 9.275H109.66V43.725H118.075C121.254 43.725 123.942 42.9889 126.139 41.5167C128.337 39.9954 129.996 37.9343 131.118 35.3333C132.287 32.6833 132.871 29.7144 132.871 26.4264Z" fill="white"/>
<path d="M183.347 43.725V52.6319H148.777V0.368054H182.716V9.275H158.454V21.8625H179.421V30.1069H158.454V43.725H183.347Z" fill="white"/>
<path d="M189.489 52.6319V0.368054H199.166V43.725H224.551V52.6319H189.489Z" fill="white"/>
<path d="M229.038 52.6319V0.368054H262.487V9.275H238.715V22.7458H258.49V30.9903H238.715V52.6319H229.038Z" fill="white"/>
<path d="M288.396 53C284.749 53 281.43 52.2639 278.438 50.7917C275.493 49.3194 272.945 47.3319 270.795 44.8292C268.691 42.2773 267.055 39.431 265.886 36.2903C264.717 33.1005 264.133 29.837 264.133 26.5C264.133 23.0157 264.741 19.7032 265.956 16.5625C267.218 13.3727 268.925 10.5509 271.075 8.09722C273.272 5.59445 275.844 3.63148 278.789 2.20833C281.781 0.73611 285.053 0 288.606 0C292.206 0 295.478 0.760649 298.423 2.28195C301.415 3.80324 303.963 5.83981 306.067 8.39167C308.17 10.9435 309.807 13.7898 310.975 16.9306C312.144 20.0713 312.728 23.3102 312.728 26.6472C312.728 30.0824 312.121 33.3949 310.905 36.5847C309.69 39.7255 307.983 42.5472 305.786 45.05C303.636 47.5037 301.065 49.4421 298.073 50.8653C295.127 52.2884 291.902 53 288.396 53ZM273.95 26.5C273.95 28.7574 274.277 30.9412 274.932 33.0514C275.586 35.1616 276.521 37.0509 277.737 38.7194C278.999 40.3389 280.518 41.6394 282.295 42.6208C284.118 43.5532 286.175 44.0194 288.466 44.0194C290.803 44.0194 292.884 43.5287 294.707 42.5472C296.53 41.5167 298.049 40.1671 299.265 38.4986C300.48 36.781 301.392 34.8917 302 32.8306C302.654 30.7204 302.981 28.6102 302.981 26.5C302.981 24.2426 302.631 22.0833 301.929 20.0222C301.275 17.912 300.317 16.0472 299.054 14.4278C297.839 12.7593 296.32 11.4588 294.496 10.5264C292.72 9.54491 290.71 9.05417 288.466 9.05417C286.082 9.05417 283.978 9.56945 282.155 10.6C280.378 11.5815 278.882 12.9065 277.667 14.575C276.451 16.2435 275.516 18.1083 274.862 20.1694C274.254 22.2306 273.95 24.3407 273.95 26.5Z" fill="white"/>
<path d="M318.749 52.6319V0.368054H340.768C343.059 0.368054 345.162 0.858794 347.079 1.84027C349.043 2.82176 350.725 4.14676 352.128 5.81528C353.577 7.4838 354.676 9.34861 355.424 11.4097C356.218 13.4708 356.616 15.581 356.616 17.7403C356.616 19.9486 356.242 22.0833 355.494 24.1444C354.793 26.1565 353.764 27.9231 352.408 29.4444C351.053 30.9657 349.463 32.1435 347.64 32.9778L359 52.6319H348.341L338.103 35.1125H328.426V52.6319H318.749ZM328.426 26.2056H340.558C341.773 26.2056 342.848 25.8375 343.783 25.1014C344.718 24.3162 345.466 23.2856 346.027 22.0097C346.588 20.7338 346.869 19.3106 346.869 17.7403C346.869 16.0718 346.541 14.6241 345.887 13.3972C345.232 12.1213 344.391 11.1153 343.362 10.3792C342.381 9.64306 341.306 9.275 340.137 9.275H328.426V26.2056Z" fill="white"/>
<path d="M368 37H384V53H368V37Z" fill="url(#paint0_linear_948_6)"/>
<defs>
<linearGradient id="paint0_linear_948_6" x1="389.108" y1="58.5422" x2="364.193" y2="37" gradientUnits="userSpaceOnUse">
<stop stop-color="#AA1D72"/>
<stop offset="1" stop-color="#F43535"/>
</linearGradient>
</defs>
</svg>
