<svg width="40" height="40" viewBox="0 0 40 40" fill="none" xmlns="http://www.w3.org/2000/svg">
<path d="M14.9199 9.80001L25.7999 3L37.36 5.04V29.5201L29.88 38.3601L14.9199 34.9601V9.80001Z" fill="white"/>
<path d="M14.9199 9.80001L25.7999 3L37.36 5.04M14.9199 9.80001L29.88 13.2M14.9199 9.80001V34.9601L29.88 38.3601M37.36 5.04L29.88 13.2M37.36 5.04V29.5201L29.88 38.3601M29.88 13.2V38.3601" stroke="black"/>
<path d="M2 22.7201L6.76001 6.40004H11.52L6.76001 15.2401L11.52 13.8801L4.04 32.9201L6.08001 20.6801L2 22.7201Z" fill="white" stroke="black"/>
<path d="M30 18H27" stroke="#FFBABA" stroke-width="2"/>
<path d="M15 23.5L29.8801 26.8002V19.5L27.1601 18.9493M15 16L27.1601 18.9493M27.1601 18.9493V12.5202" stroke="#787878"/>
<path d="M14.9199 9.80001L25.7999 3L37.36 5.04M14.9199 9.80001L29.88 13.2M14.9199 9.80001V34.9601L29.88 38.3601M37.36 5.04L29.88 13.2M37.36 5.04V29.5201L29.88 38.3601M29.88 13.2V38.3601" stroke="black"/>
</svg>
