<svg width="40" height="40" viewBox="0 0 40 40" fill="none" xmlns="http://www.w3.org/2000/svg">
<path d="M1 24L5.43333 8.80002H9.86667L5.43333 17.0334L9.86667 15.7667L2.9 33.5L4.8 22.1L1 24Z" fill="white" stroke="black"/>
<path d="M20.6336 30.9667L23.1669 27.8H26.3336L28.2336 30.9667L33.9336 31.4945V33.6056L32.6669 34.1334H16.2003L14.9336 33.6056V31.4945L20.6336 30.9667Z" fill="white" stroke="black"/>
<rect x="10.3667" y="5.5" width="28.1333" height="23.0667" rx="1.5" fill="white" stroke="black"/>
<rect x="12.8999" y="8.03337" width="23.0667" height="18" rx="1.5" fill="#5A5A5A" stroke="black"/>
<path d="M17.4668 25.9C17.889 22.3111 20.3801 13.2333 24.4335 8.16667C23.1668 11.3333 20.1268 19.82 20.6335 25.9H17.4668Z" fill="black"/>
<path d="M23.8001 25.9C23.1668 23.1556 22.7868 15.8933 26.3335 8.80001H33.3001L35.2001 9V24.6333L33.9335 25.9H23.8001Z" fill="black"/>
<path d="M17.4668 25.9C17.889 22.3111 20.3801 13.2333 24.4335 8.16667C23.1668 11.3333 20.1268 19.82 20.6335 25.9H17.4668Z" stroke="black"/>
<path d="M23.8001 25.9C23.1668 23.1556 22.7868 15.8933 26.3335 8.80001H33.3001L35.2001 9V24.6333L33.9335 25.9H23.8001Z" stroke="black"/>
</svg>
