<svg width="20" height="20" viewBox="0 0 20 20" fill="none" xmlns="http://www.w3.org/2000/svg">
<mask id="path-1-inside-1_52_102" fill="white">
<path d="M11.9318 6.32533H14.2528L14.0311 7.0118H11.7623C11.3103 8.87706 10.5627 11.3317 9.51956 14.3757C8.70244 16.7402 7.81143 18.2969 6.84654 19.0458C6.11635 19.6213 5.36442 19.9091 4.59077 19.9091C4.10398 19.9091 3.71715 19.8016 3.43029 19.5867C3.14343 19.3786 3 19.1221 3 18.817C3 18.5466 3.09997 18.3247 3.2999 18.1513C3.50853 17.978 3.74323 17.8913 4.00401 17.8913C4.23002 17.8913 4.42561 17.9537 4.59077 18.0785C4.76463 18.2033 4.85155 18.3351 4.85155 18.4737C4.85155 18.6263 4.7907 18.758 4.66901 18.869C4.58208 18.9522 4.53862 19.0181 4.53862 19.0666C4.53862 19.1221 4.56904 19.1706 4.62989 19.2122C4.69074 19.2608 4.76897 19.285 4.86459 19.285C5.03845 19.285 5.19926 19.2504 5.34704 19.181C5.60782 19.0631 5.86426 18.8412 6.11635 18.5154C6.36844 18.1895 6.62922 17.5758 6.8987 16.6744C6.95085 16.5218 7.32464 15.083 8.02006 12.3579C8.0809 12.1152 8.61551 10.3332 9.62387 7.0118H7.31595L7.51153 6.32533C8.37211 6.2768 8.91106 6.2248 9.12838 6.16932C9.35439 6.10692 9.54128 5.99598 9.68907 5.83648C9.91507 5.60074 10.1759 5.13616 10.4714 4.44274C11.106 2.97274 11.7145 2.02972 12.2969 1.61366C12.8706 1.20457 13.5095 1.00001 14.2136 1C14.7526 1.00001 15.1829 1.11443 15.5045 1.34323C15.8348 1.57207 16 1.84596 16 2.16492C16 2.40762 15.9131 2.60177 15.7392 2.74737C15.5654 2.893 15.3567 2.96581 15.1133 2.9658C14.8873 2.96581 14.6917 2.90687 14.5266 2.78898C14.3701 2.66418 14.2919 2.52897 14.2919 2.38334C14.2919 2.27241 14.3397 2.15453 14.4353 2.0297C14.5309 1.89797 14.5787 1.80436 14.5787 1.74887C14.5787 1.67261 14.5396 1.60674 14.4614 1.55125C14.3831 1.50273 14.2701 1.47846 14.1224 1.47845C13.8442 1.47846 13.5921 1.56167 13.3661 1.72807C13.0618 1.95691 12.8619 2.24814 12.7663 2.60176C12.5316 3.44079 12.2534 4.68198 11.9318 6.32533"/>
</mask>
<path d="M11.9318 6.32533H14.2528L14.0311 7.0118H11.7623C11.3103 8.87706 10.5627 11.3317 9.51956 14.3757C8.70244 16.7402 7.81143 18.2969 6.84654 19.0458C6.11635 19.6213 5.36442 19.9091 4.59077 19.9091C4.10398 19.9091 3.71715 19.8016 3.43029 19.5867C3.14343 19.3786 3 19.1221 3 18.817C3 18.5466 3.09997 18.3247 3.2999 18.1513C3.50853 17.978 3.74323 17.8913 4.00401 17.8913C4.23002 17.8913 4.42561 17.9537 4.59077 18.0785C4.76463 18.2033 4.85155 18.3351 4.85155 18.4737C4.85155 18.6263 4.7907 18.758 4.66901 18.869C4.58208 18.9522 4.53862 19.0181 4.53862 19.0666C4.53862 19.1221 4.56904 19.1706 4.62989 19.2122C4.69074 19.2608 4.76897 19.285 4.86459 19.285C5.03845 19.285 5.19926 19.2504 5.34704 19.181C5.60782 19.0631 5.86426 18.8412 6.11635 18.5154C6.36844 18.1895 6.62922 17.5758 6.8987 16.6744C6.95085 16.5218 7.32464 15.083 8.02006 12.3579C8.0809 12.1152 8.61551 10.3332 9.62387 7.0118H7.31595L7.51153 6.32533C8.37211 6.2768 8.91106 6.2248 9.12838 6.16932C9.35439 6.10692 9.54128 5.99598 9.68907 5.83648C9.91507 5.60074 10.1759 5.13616 10.4714 4.44274C11.106 2.97274 11.7145 2.02972 12.2969 1.61366C12.8706 1.20457 13.5095 1.00001 14.2136 1C14.7526 1.00001 15.1829 1.11443 15.5045 1.34323C15.8348 1.57207 16 1.84596 16 2.16492C16 2.40762 15.9131 2.60177 15.7392 2.74737C15.5654 2.893 15.3567 2.96581 15.1133 2.9658C14.8873 2.96581 14.6917 2.90687 14.5266 2.78898C14.3701 2.66418 14.2919 2.52897 14.2919 2.38334C14.2919 2.27241 14.3397 2.15453 14.4353 2.0297C14.5309 1.89797 14.5787 1.80436 14.5787 1.74887C14.5787 1.67261 14.5396 1.60674 14.4614 1.55125C14.3831 1.50273 14.2701 1.47846 14.1224 1.47845C13.8442 1.47846 13.5921 1.56167 13.3661 1.72807C13.0618 1.95691 12.8619 2.24814 12.7663 2.60176C12.5316 3.44079 12.2534 4.68198 11.9318 6.32533" fill="#A9ED9F"/>
<path d="M14.2528 6.32533L17.1076 7.24718L18.374 3.32533H14.2528V6.32533ZM14.0311 7.0118V10.0118H16.2149L16.8859 7.93365L14.0311 7.0118ZM11.7623 7.0118V4.0118H9.40247L8.84668 6.30523L11.7623 7.0118ZM9.51956 14.3757L12.355 15.3556L12.3576 15.3483L9.51956 14.3757ZM6.84654 19.0458L5.00715 16.6759L4.9983 16.6827L4.98949 16.6897L6.84654 19.0458ZM4.59077 19.9091L4.59075 22.9091L4.59079 22.9091L4.59077 19.9091ZM3.43029 19.5867L5.22925 17.1859L5.21047 17.1718L5.19147 17.158L3.43029 19.5867ZM3.2999 18.1513L1.38262 15.8439L1.35842 15.864L1.33464 15.8847L3.2999 18.1513ZM4.00401 17.8913L4.00398 20.8913L4.00405 20.8913L4.00401 17.8913ZM4.59077 18.0785L2.78206 20.4719L2.81137 20.4941L2.84122 20.5155L4.59077 18.0785ZM4.85155 18.4737L7.85155 18.4738L7.85155 18.4737L4.85155 18.4737ZM4.66901 18.869L2.64784 16.652L2.62093 16.6766L2.59463 16.7017L4.66901 18.869ZM4.53862 19.0666L7.53862 19.0667L7.53862 19.0665L4.53862 19.0666ZM4.62989 19.2122L6.50059 16.8669L6.41431 16.7981L6.3232 16.7358L4.62989 19.2122ZM4.86459 19.285L4.86447 22.285L4.86466 22.285L4.86459 19.285ZM5.34704 19.181L4.11132 16.4473L4.09197 16.4561L4.07275 16.4651L5.34704 19.181ZM6.11635 18.5154L8.48927 20.3509L8.48932 20.3508L6.11635 18.5154ZM6.8987 16.6744L4.06 15.7039L4.04111 15.7592L4.02439 15.8151L6.8987 16.6744ZM8.02006 12.3579L10.9269 13.0998L10.93 13.0875L8.02006 12.3579ZM9.62387 7.0118L12.4945 7.88331L13.6699 4.0118L9.62387 4.0118V7.0118ZM7.31595 7.0118L4.43077 6.18976L3.3418 10.0118H7.31595V7.0118ZM7.51153 6.32533L7.34263 3.33009L5.2113 3.45028L4.62636 5.50329L7.51153 6.32533ZM9.12838 6.16932L9.87046 9.07609L9.89869 9.06888L9.92678 9.06113L9.12838 6.16932ZM9.68907 5.83648L7.52347 3.76039L7.50583 3.77878L7.48851 3.79748L9.68907 5.83648ZM10.4714 4.44274L7.71705 3.25376L7.71165 3.26643L10.4714 4.44274ZM12.2969 1.61366L10.5551 -0.828949L10.5531 -0.827463L12.2969 1.61366ZM14.2136 1L14.2137 -2L14.2136 -2L14.2136 1ZM15.5045 1.34323L13.7655 3.7878L13.7807 3.79862L13.7961 3.80925L15.5045 1.34323ZM16 2.16492L19 2.16508L19 2.16479L16 2.16492ZM15.7392 2.74737L13.8129 0.447484L13.8129 0.447518L15.7392 2.74737ZM15.1133 2.9658L15.1135 -0.0342034L15.1132 -0.0342034L15.1133 2.9658ZM14.5266 2.78898L12.656 5.1344L12.7185 5.18425L12.7836 5.23069L14.5266 2.78898ZM14.2919 2.38334L17.2919 2.38357L17.2919 2.38303L14.2919 2.38334ZM14.4353 2.0297L16.8168 3.85418L16.8404 3.8233L16.8633 3.79183L14.4353 2.0297ZM14.5787 1.74887L17.5787 1.74949L17.5787 1.74843L14.5787 1.74887ZM14.4614 1.55125L16.1971 -0.895661L16.1214 -0.949358L16.0425 -0.998274L14.4614 1.55125ZM14.1224 1.47845L14.1226 -1.52155L14.1222 -1.52155L14.1224 1.47845ZM13.3661 1.72807L11.5874 -0.687722L11.5751 -0.678669L11.5629 -0.669492L13.3661 1.72807ZM12.7663 2.60176L15.6554 3.40997L15.6589 3.39738L15.6623 3.38477L12.7663 2.60176ZM11.9318 9.32533H14.2528V3.32533H11.9318V9.32533ZM11.3979 5.40348L11.1762 6.08995L16.8859 7.93365L17.1076 7.24718L11.3979 5.40348ZM14.0311 4.0118H11.7623V10.0118H14.0311V4.0118ZM8.84668 6.30523C8.42604 8.04097 7.71182 10.3967 6.68156 13.4032L12.3576 15.3483C13.4135 12.2667 14.1945 9.71315 14.6779 7.71837L8.84668 6.30523ZM6.6841 13.3959C5.89468 15.6802 5.23435 16.4995 5.00715 16.6759L8.68592 21.4158C10.3885 20.0943 11.5102 17.8003 12.355 15.3556L6.6841 13.3959ZM4.98949 16.6897C4.82604 16.8185 4.71626 16.8709 4.66269 16.8914C4.61491 16.9097 4.59623 16.9091 4.59076 16.9091L4.59079 22.9091C6.16646 22.9091 7.55466 22.3075 8.70359 21.4019L4.98949 16.6897ZM4.5908 16.9091C4.52354 16.9091 4.83952 16.8938 5.22925 17.1859L1.63133 21.9874C2.59478 22.7094 3.68441 22.9091 4.59075 22.9091L4.5908 16.9091ZM5.19147 17.158C5.32922 17.2579 5.54633 17.4527 5.72615 17.7743C5.91424 18.1108 6 18.4772 6 18.817H0C0 20.2479 0.747624 21.3471 1.66911 22.0153L5.19147 17.158ZM6 18.817C6 19.0591 5.95326 19.3625 5.8102 19.68C5.66638 19.9993 5.46471 20.245 5.26516 20.418L1.33464 15.8847C0.461117 16.642 0 17.6986 0 18.817H6ZM5.21718 20.4587C5.08174 20.5712 4.89944 20.6864 4.67168 20.7705C4.44234 20.8552 4.21309 20.8913 4.00398 20.8913L4.00404 14.8913C3.01297 14.8913 2.10643 15.2425 1.38262 15.8439L5.21718 20.4587ZM4.00405 20.8913C3.64059 20.8913 3.18615 20.7773 2.78206 20.4719L6.39949 15.6851C5.66506 15.1301 4.81946 14.8913 4.00398 14.8913L4.00405 20.8913ZM2.84122 20.5155C2.67033 20.3928 1.85157 19.739 1.85155 18.4738L7.85155 18.4737C7.85154 16.9311 6.85892 16.0138 6.34032 15.6415L2.84122 20.5155ZM1.85155 18.4737C1.85156 18.1384 1.92138 17.7776 2.08238 17.4291C2.24091 17.0858 2.45264 16.83 2.64784 16.652L6.69017 21.0859C7.37975 20.4573 7.85154 19.5425 7.85155 18.4738L1.85155 18.4737ZM2.59463 16.7017C2.46417 16.8266 2.25884 17.0381 2.06716 17.3286C1.90556 17.5735 1.53859 18.1925 1.53862 19.0667L7.53862 19.0665C7.53864 19.8922 7.1934 20.4539 7.07527 20.633C6.92705 20.8576 6.78692 20.9946 6.74338 21.0362L2.59463 16.7017ZM1.53862 19.0665C1.53858 20.425 2.35502 21.291 2.93657 21.6886L6.3232 16.7358C6.53966 16.8838 6.84627 17.1411 7.10337 17.5513C7.37718 17.9882 7.53863 18.5117 7.53862 19.0667L1.53862 19.0665ZM2.75919 21.5575C3.4641 22.1198 4.2489 22.285 4.86447 22.285L4.86472 16.285C5.28904 16.285 5.91738 16.4017 6.50059 16.8669L2.75919 21.5575ZM4.86466 22.285C5.44975 22.285 6.04919 22.1654 6.62133 21.8969L4.07275 16.4651C4.34933 16.3353 4.62714 16.285 4.86453 16.285L4.86466 22.285ZM6.58276 21.9147C7.44345 21.5256 8.06038 20.9054 8.48927 20.3509L3.74343 16.6798C3.7143 16.7175 3.72145 16.7013 3.77196 16.6576C3.82328 16.6132 3.93474 16.5272 4.11132 16.4473L6.58276 21.9147ZM8.48932 20.3508C9.11243 19.5453 9.49888 18.4506 9.773 17.5336L4.02439 15.8151C3.90972 16.1987 3.81318 16.4651 3.73997 16.6374C3.70419 16.7215 3.68132 16.7658 3.6738 16.7796C3.6646 16.7965 3.6855 16.7547 3.74338 16.6799L8.48932 20.3508ZM9.7374 17.6448C9.84074 17.3425 10.2625 15.7031 10.9269 13.0997L5.11322 11.6161C4.76581 12.9775 4.49978 14.0135 4.31453 14.7265C4.22172 15.0838 4.15053 15.3548 4.10013 15.5431C4.03287 15.7944 4.03145 15.7874 4.06 15.7039L9.7374 17.6448ZM10.93 13.0875C10.927 13.0994 10.9512 13.0106 11.0326 12.7337C11.1048 12.4883 11.2071 12.145 11.3401 11.7014C11.606 10.8152 11.9906 9.54305 12.4945 7.88331L6.75325 6.14029C5.76601 9.39212 5.19464 11.2913 5.11012 11.6284L10.93 13.0875ZM9.62387 4.0118H7.31595V10.0118H9.62387V4.0118ZM10.2011 7.83384L10.3967 7.14737L4.62636 5.50329L4.43077 6.18976L10.2011 7.83384ZM7.68044 9.32057C8.43913 9.27779 9.30876 9.21949 9.87046 9.07609L8.38631 3.26255C8.48519 3.2373 8.5332 3.23298 8.48295 3.24012C8.44702 3.24523 8.37981 3.2535 8.27304 3.2638C8.0593 3.28443 7.75338 3.30693 7.34263 3.33009L7.68044 9.32057ZM9.92678 9.06113C10.6466 8.8624 11.3331 8.47612 11.8896 7.87549L7.48851 3.79748C7.74948 3.51583 8.06219 3.35144 8.32999 3.27751L9.92678 9.06113ZM11.8547 7.91258C12.4941 7.24553 12.9311 6.32311 13.2312 5.61906L7.71165 3.26643C7.59054 3.55058 7.49862 3.735 7.43812 3.84278C7.40888 3.89487 7.39633 3.91227 7.40172 3.90451C7.40501 3.89979 7.44432 3.84294 7.52347 3.76039L11.8547 7.91258ZM13.2257 5.63172C13.5026 4.99031 13.739 4.54701 13.9245 4.25952C14.127 3.94573 14.182 3.95387 14.0407 4.05479L10.5531 -0.827463C9.23679 0.112826 8.36095 1.76221 7.71708 3.25377L13.2257 5.63172ZM14.0386 4.05627C14.0857 4.02271 14.1117 4.01359 14.1211 4.01057C14.1305 4.00756 14.1566 4 14.2137 4L14.2136 -2C12.8846 -1.99997 11.6369 -1.60029 10.5551 -0.828948L14.0386 4.05627ZM14.2136 4C14.3521 4 14.1073 4.03095 13.7655 3.7878L17.2435 -1.10133C16.2584 -1.80209 15.1531 -1.99998 14.2137 -2L14.2136 4ZM13.7961 3.80925C13.6993 3.74223 13.4919 3.57594 13.3071 3.26946C13.1085 2.94026 13 2.55311 13 2.16504L19 2.16479C18.9999 0.605952 18.1162 -0.497011 17.213 -1.12278L13.7961 3.80925ZM13 2.16476C13 1.92305 13.0448 1.60592 13.1967 1.26664C13.3511 0.921738 13.5749 0.646858 13.8129 0.447484L17.6655 5.04726C18.5726 4.28752 18.9999 3.22429 19 2.16508L13 2.16476ZM13.8129 0.447518C13.9964 0.293854 14.2169 0.164923 14.4639 0.0787307C14.7079 -0.00645444 14.9326 -0.0342126 15.1135 -0.0342034L15.1132 5.9658C16.0055 5.96584 16.9105 5.6796 17.6655 5.04723L13.8129 0.447518ZM15.1132 -0.0342034C15.4377 -0.0342212 15.8686 0.0610359 16.2696 0.347264L12.7836 5.23069C13.5149 5.7527 14.3369 5.96584 15.1135 5.9658L15.1132 -0.0342034ZM16.3971 0.443561C16.6709 0.661925 17.292 1.30647 17.2919 2.38357L11.2919 2.38311C11.2918 3.75146 12.0693 4.66643 12.656 5.1344L16.3971 0.443561ZM17.2919 2.38303C17.292 3.15746 16.9592 3.66824 16.8168 3.85418L12.0539 0.205225C11.7201 0.640819 11.2918 1.38736 11.2919 2.38364L17.2919 2.38303ZM16.8633 3.79183C16.9587 3.6603 17.0925 3.4642 17.2146 3.22524C17.2941 3.06954 17.5786 2.50927 17.5787 1.74949L11.5787 1.74826C11.5788 1.35267 11.6599 1.04724 11.7131 0.881383C11.7701 0.70384 11.8327 0.571461 11.8712 0.496154C11.9119 0.41639 11.9471 0.358733 11.9672 0.327282C11.9881 0.294304 12.0028 0.273812 12.0074 0.26758L16.8633 3.79183ZM17.5787 1.74843C17.5785 0.450168 16.8398 -0.439726 16.1971 -0.895661L12.7257 3.99817C12.5062 3.84244 12.2113 3.58049 11.9699 3.17404C11.7156 2.74583 11.5788 2.25276 11.5787 1.74932L17.5787 1.74843ZM16.0425 -0.998274C15.2833 -1.46911 14.5226 -1.52151 14.1226 -1.52155L14.1221 4.47845C14.0397 4.47844 13.8863 4.47237 13.688 4.42978C13.4902 4.38729 13.1978 4.29769 12.8803 4.10078L16.0425 -0.998274ZM14.1222 -1.52155C13.1979 -1.52151 12.3238 -1.22995 11.5874 -0.687722L15.1448 4.14387C15.0176 4.23755 14.8563 4.32653 14.665 4.38969C14.4734 4.45293 14.2875 4.47844 14.1225 4.47845L14.1222 -1.52155ZM11.5629 -0.669492C10.7473 -0.0561239 10.1475 0.793536 9.87028 1.81875L15.6623 3.38477C15.6251 3.52236 15.5598 3.67246 15.4612 3.81606C15.3634 3.95848 15.2568 4.05987 15.1693 4.12564L11.5629 -0.669492ZM9.87721 1.79355C9.60968 2.7499 9.31337 4.08482 8.98765 5.74913L14.8759 6.90153C15.1935 5.27913 15.4535 4.13167 15.6554 3.40997L9.87721 1.79355Z" fill="#A9ED9F" mask="url(#path-1-inside-1_52_102)"/>
<path d="M16 6.68454H5.95459" stroke="#A9ED9F" stroke-width="0.57"/>
</svg>
