<svg width="20" height="20" viewBox="0 0 20 20" fill="none" xmlns="http://www.w3.org/2000/svg">
<path d="M8.81082 18L9.06465 16.9286C8.73226 16.9286 8.4603 16.852 8.24878 16.699C8.03725 16.551 7.86804 16.3571 7.74112 16.1173C7.61421 15.8776 7.52658 15.6097 7.47823 15.3138C7.43593 15.0179 7.41477 14.7245 7.41477 14.4337V13.1633C7.40873 12.5561 7.23347 12.023 6.88899 11.5638C6.55055 11.0995 6.0157 10.7474 5.28444 10.5077C6.00966 10.2628 6.54451 9.90816 6.88899 9.44388C7.23951 8.97449 7.41477 8.43622 7.41477 7.82908V6.55867C7.41477 6.26786 7.42384 5.97449 7.44197 5.67857C7.46614 5.38265 7.53262 5.1148 7.6414 4.875C7.75019 4.6352 7.91638 4.44133 8.13999 4.29337C8.3636 4.14031 8.67182 4.06378 9.06465 4.06378L8.81082 3C8.21252 3.0051 7.69882 3.10714 7.26973 3.30612C6.84669 3.5 6.50523 3.75255 6.24536 4.06378C5.94318 4.40561 5.72259 4.80102 5.58359 5.25C5.44459 5.69898 5.37509 6.1352 5.37509 6.55867V7.82908C5.37509 8.53827 5.17868 9.04847 4.78585 9.35969C4.39907 9.67092 3.80378 9.82653 3 9.82653V11.1811C3.80378 11.1811 4.39907 11.3367 4.78585 11.648C5.17868 11.9592 5.37509 12.4643 5.37509 13.1633V14.4337C5.37509 14.8367 5.44157 15.2474 5.57453 15.6658C5.70749 16.0893 5.91599 16.4719 6.20003 16.8138C6.47803 17.1607 6.8346 17.4413 7.26973 17.6556C7.70486 17.875 8.21856 17.9898 8.81082 18Z" fill="white"/>
<path d="M10.9263 16.9286L11.1892 18C11.7814 17.9949 12.2951 17.8827 12.7303 17.6633C13.1654 17.4439 13.522 17.1607 13.8 16.8138C14.0719 16.477 14.2774 16.0969 14.4164 15.6735C14.5554 15.25 14.6249 14.8367 14.6249 14.4337V13.1633C14.6249 12.8776 14.6581 12.625 14.7246 12.4056C14.7911 12.1811 14.8908 11.9923 15.0238 11.8393C15.2111 11.6097 15.468 11.4439 15.7943 11.3418C16.1207 11.2347 16.5226 11.1811 17 11.1811V9.82653C16.5286 9.82653 16.1267 9.77551 15.7943 9.67347C15.4619 9.56633 15.2051 9.40306 15.0238 9.18367C14.8848 9.02551 14.782 8.83418 14.7156 8.60969C14.6551 8.3852 14.6249 8.125 14.6249 7.82908V6.55867C14.6249 6.15561 14.5614 5.74235 14.4345 5.31888C14.3137 4.89031 14.1112 4.5051 13.8272 4.16327C13.5552 3.81633 13.2017 3.53827 12.7665 3.32908C12.3374 3.1148 11.8117 3.0051 11.1892 3L10.9354 4.06378C11.3282 4.06378 11.6364 4.14031 11.86 4.29337C12.0836 4.44133 12.2498 4.6352 12.3586 4.875C12.4613 5.1148 12.5248 5.38265 12.549 5.67857C12.5792 5.97449 12.5943 6.26786 12.5943 6.55867V7.82908C12.5943 8.20153 12.6547 8.55102 12.7756 8.87755C12.9025 9.19898 13.0959 9.48724 13.3558 9.74235C13.5189 9.90051 13.7063 10.0459 13.9178 10.1786C14.1354 10.3061 14.3771 10.4158 14.643 10.5077C14.3409 10.6148 14.0719 10.7449 13.8362 10.898C13.6066 11.0459 13.4102 11.2143 13.247 11.4031C13.0234 11.6429 12.8572 11.9133 12.7484 12.2143C12.6457 12.5102 12.5943 12.8265 12.5943 13.1633V14.4337C12.5943 14.7245 12.5671 15.0179 12.5127 15.3138C12.4644 15.6097 12.3767 15.8776 12.2498 16.1173C12.1229 16.3571 11.9507 16.551 11.7331 16.699C11.5216 16.852 11.2526 16.9286 10.9263 16.9286Z" fill="white"/>
</svg>
