<svg width="299" height="169" viewBox="0 0 299 169" fill="none" xmlns="http://www.w3.org/2000/svg">
<mask id="mask0_404_2" style="mask-type:alpha" maskUnits="userSpaceOnUse" x="0" y="0" width="299" height="169">
<rect width="299" height="169" fill="#D9D9D9"/>
</mask>
<g mask="url(#mask0_404_2)">
<path d="M39.3394 163.094C39.3394 162.656 39.2716 162.266 39.1362 161.922C39.0112 161.568 38.7769 161.25 38.4331 160.969C38.0998 160.677 37.6258 160.396 37.0112 160.125C36.4071 159.844 35.6258 159.552 34.6675 159.25C33.605 158.917 32.6154 158.542 31.6987 158.125C30.7821 157.708 29.9748 157.224 29.2769 156.672C28.5894 156.12 28.0529 155.484 27.6675 154.766C27.2821 154.036 27.0894 153.193 27.0894 152.234C27.0894 151.297 27.2873 150.443 27.6831 149.672C28.0894 148.901 28.6623 148.24 29.4019 147.688C30.1414 147.125 31.0112 146.693 32.0112 146.391C33.0216 146.089 34.1362 145.938 35.355 145.938C37.0425 145.938 38.5008 146.245 39.73 146.859C40.9696 147.474 41.9279 148.307 42.605 149.359C43.2821 150.411 43.6206 151.594 43.6206 152.906H39.3394C39.3394 152.198 39.1883 151.573 38.8862 151.031C38.5946 150.49 38.1466 150.062 37.5425 149.75C36.9487 149.438 36.1987 149.281 35.2925 149.281C34.4175 149.281 33.6883 149.411 33.105 149.672C32.5321 149.932 32.0998 150.286 31.8081 150.734C31.5269 151.182 31.3862 151.682 31.3862 152.234C31.3862 152.651 31.4852 153.026 31.6831 153.359C31.881 153.682 32.1779 153.99 32.5737 154.281C32.9696 154.562 33.4591 154.828 34.0425 155.078C34.6362 155.318 35.3237 155.557 36.105 155.797C37.355 156.172 38.4487 156.589 39.3862 157.047C40.3341 157.505 41.1206 158.026 41.7456 158.609C42.381 159.193 42.855 159.849 43.1675 160.578C43.4904 161.307 43.6519 162.135 43.6519 163.062C43.6519 164.042 43.4591 164.917 43.0737 165.688C42.6883 166.458 42.1362 167.115 41.4175 167.656C40.6987 168.198 39.8341 168.609 38.8237 168.891C37.8237 169.172 36.7039 169.312 35.4644 169.312C34.3602 169.312 33.2664 169.167 32.1831 168.875C31.1102 168.573 30.1362 168.125 29.2612 167.531C28.3862 166.927 27.6883 166.167 27.1675 165.25C26.6466 164.323 26.3862 163.24 26.3862 162H30.6987C30.6987 162.719 30.8133 163.333 31.0425 163.844C31.2821 164.344 31.6154 164.755 32.0425 165.078C32.48 165.391 32.9904 165.62 33.5737 165.766C34.1571 165.911 34.7873 165.984 35.4644 165.984C36.3394 165.984 37.0581 165.865 37.6206 165.625C38.1935 165.375 38.6206 165.031 38.9019 164.594C39.1935 164.156 39.3394 163.656 39.3394 163.094ZM59.4606 146.25H63.7575V161.359C63.7575 163.099 63.3825 164.562 62.6325 165.75C61.8825 166.927 60.8616 167.818 59.57 168.422C58.2783 169.016 56.8096 169.312 55.1637 169.312C53.4971 169.312 52.0127 169.016 50.7106 168.422C49.4085 167.818 48.3877 166.927 47.6481 165.75C46.9085 164.562 46.5387 163.099 46.5387 161.359V146.25H50.8356V161.359C50.8356 162.422 51.0127 163.292 51.3669 163.969C51.721 164.635 52.221 165.13 52.8669 165.453C53.5127 165.776 54.2783 165.938 55.1637 165.938C56.0596 165.938 56.8252 165.776 57.4606 165.453C58.1064 165.13 58.6012 164.635 58.945 163.969C59.2887 163.292 59.4606 162.422 59.4606 161.359V146.25ZM67.6756 146.25H75.9412C77.6704 146.25 79.1548 146.51 80.3944 147.031C81.6339 147.552 82.5871 148.323 83.2537 149.344C83.9204 150.365 84.2537 151.62 84.2537 153.109C84.2537 154.286 84.0454 155.307 83.6287 156.172C83.2121 157.036 82.6235 157.76 81.8631 158.344C81.1131 158.927 80.2277 159.385 79.2069 159.719L77.8631 160.406H70.5662L70.535 157.016H75.9881C76.8735 157.016 77.6079 156.859 78.1912 156.547C78.7746 156.234 79.2121 155.802 79.5037 155.25C79.8058 154.698 79.9569 154.068 79.9569 153.359C79.9569 152.599 79.811 151.943 79.5194 151.391C79.2277 150.828 78.785 150.396 78.1912 150.094C77.5975 149.792 76.8475 149.641 75.9412 149.641H71.9725V169H67.6756V146.25ZM80.5194 169L75.2537 158.812L79.8006 158.797L85.1287 168.781V169H80.5194ZM87.8594 146.25H96.125C97.8541 146.25 99.3385 146.51 100.578 147.031C101.818 147.552 102.771 148.323 103.437 149.344C104.104 150.365 104.437 151.62 104.437 153.109C104.437 154.286 104.229 155.307 103.812 156.172C103.396 157.036 102.807 157.76 102.047 158.344C101.297 158.927 100.411 159.385 99.3906 159.719L98.0469 160.406H90.75L90.7187 157.016H96.1719C97.0573 157.016 97.7916 156.859 98.375 156.547C98.9583 156.234 99.3958 155.802 99.6875 155.25C99.9896 154.698 100.141 154.068 100.141 153.359C100.141 152.599 99.9948 151.943 99.7031 151.391C99.4114 150.828 98.9687 150.396 98.375 150.094C97.7812 149.792 97.0312 149.641 96.125 149.641H92.1562V169H87.8594V146.25ZM100.703 169L95.4375 158.812L99.9844 158.797L105.312 168.781V169H100.703ZM123.121 165.625V169H111.027V165.625H123.121ZM112.34 146.25V169H108.043V146.25H112.34ZM121.543 155.641V158.938H111.027V155.641H121.543ZM123.074 146.25V149.641H111.027V146.25H123.074ZM134.992 149.703L128.508 169H123.961L132.461 146.25H135.367L134.992 149.703ZM140.414 169L133.899 149.703L133.508 146.25H136.43L144.977 169H140.414ZM140.117 160.547V163.938H127.914V160.547H140.117ZM161.598 165.625V169H150.161V165.625H161.598ZM151.457 146.25V169H147.161V146.25H151.457ZM178.919 169H174.012L174.044 165.625H178.919C180.242 165.625 181.351 165.333 182.247 164.75C183.143 164.156 183.82 163.307 184.278 162.203C184.736 161.089 184.966 159.755 184.966 158.203V157.031C184.966 155.833 184.835 154.776 184.575 153.859C184.315 152.943 183.929 152.172 183.419 151.547C182.919 150.922 182.299 150.448 181.559 150.125C180.82 149.802 179.971 149.641 179.012 149.641H173.919V146.25H179.012C180.533 146.25 181.919 146.505 183.169 147.016C184.429 147.526 185.518 148.26 186.434 149.219C187.361 150.167 188.07 151.302 188.559 152.625C189.059 153.948 189.309 155.427 189.309 157.062V158.203C189.309 159.828 189.059 161.307 188.559 162.641C188.07 163.964 187.361 165.099 186.434 166.047C185.518 166.995 184.424 167.724 183.153 168.234C181.882 168.745 180.471 169 178.919 169ZM176.419 146.25V169H172.122V146.25H176.419ZM211.227 157.047V158.219C211.227 159.938 210.998 161.484 210.54 162.859C210.082 164.224 209.431 165.385 208.587 166.344C207.743 167.302 206.738 168.036 205.571 168.547C204.405 169.057 203.108 169.312 201.681 169.312C200.274 169.312 198.983 169.057 197.806 168.547C196.639 168.036 195.629 167.302 194.774 166.344C193.92 165.385 193.259 164.224 192.79 162.859C192.321 161.484 192.087 159.938 192.087 158.219V157.047C192.087 155.318 192.321 153.771 192.79 152.406C193.259 151.042 193.915 149.88 194.759 148.922C195.602 147.953 196.608 147.214 197.774 146.703C198.951 146.193 200.243 145.938 201.649 145.938C203.076 145.938 204.373 146.193 205.54 146.703C206.707 147.214 207.712 147.953 208.556 148.922C209.41 149.88 210.066 151.042 210.524 152.406C210.993 153.771 211.227 155.318 211.227 157.047ZM206.884 158.219V157.016C206.884 155.776 206.769 154.688 206.54 153.75C206.311 152.802 205.972 152.005 205.524 151.359C205.076 150.714 204.524 150.229 203.868 149.906C203.212 149.573 202.472 149.406 201.649 149.406C200.816 149.406 200.076 149.573 199.431 149.906C198.795 150.229 198.254 150.714 197.806 151.359C197.358 152.005 197.014 152.802 196.774 153.75C196.545 154.688 196.431 155.776 196.431 157.016V158.219C196.431 159.448 196.545 160.536 196.774 161.484C197.014 162.432 197.358 163.234 197.806 163.891C198.264 164.536 198.816 165.026 199.462 165.359C200.108 165.693 200.847 165.859 201.681 165.859C202.514 165.859 203.254 165.693 203.899 165.359C204.545 165.026 205.087 164.536 205.524 163.891C205.972 163.234 206.311 162.432 206.54 161.484C206.769 160.536 206.884 159.448 206.884 158.219ZM228.021 161.516H232.317C232.203 163.036 231.781 164.385 231.052 165.562C230.323 166.729 229.307 167.646 228.005 168.312C226.703 168.979 225.125 169.312 223.271 169.312C221.844 169.312 220.557 169.062 219.411 168.562C218.276 168.052 217.302 167.328 216.489 166.391C215.687 165.443 215.073 164.307 214.646 162.984C214.219 161.651 214.005 160.156 214.005 158.5V156.766C214.005 155.109 214.224 153.615 214.661 152.281C215.099 150.948 215.724 149.812 216.536 148.875C217.359 147.927 218.344 147.198 219.489 146.688C220.646 146.177 221.937 145.922 223.364 145.922C225.219 145.922 226.786 146.266 228.067 146.953C229.349 147.63 230.344 148.562 231.052 149.75C231.76 150.938 232.187 152.302 232.333 153.844H228.036C227.953 152.885 227.745 152.073 227.411 151.406C227.088 150.74 226.599 150.234 225.942 149.891C225.297 149.536 224.437 149.359 223.364 149.359C222.531 149.359 221.797 149.516 221.161 149.828C220.536 150.141 220.015 150.609 219.599 151.234C219.182 151.849 218.87 152.62 218.661 153.547C218.453 154.464 218.349 155.526 218.349 156.734V158.5C218.349 159.656 218.442 160.693 218.63 161.609C218.817 162.526 219.109 163.302 219.505 163.938C219.901 164.573 220.411 165.057 221.036 165.391C221.661 165.724 222.406 165.891 223.271 165.891C224.323 165.891 225.177 165.724 225.833 165.391C226.5 165.057 227.005 164.568 227.349 163.922C227.703 163.276 227.927 162.474 228.021 161.516ZM247.392 163.094C247.392 162.656 247.324 162.266 247.189 161.922C247.064 161.568 246.829 161.25 246.486 160.969C246.152 160.677 245.678 160.396 245.064 160.125C244.46 159.844 243.678 159.552 242.72 159.25C241.657 158.917 240.668 158.542 239.751 158.125C238.835 157.708 238.027 157.224 237.329 156.672C236.642 156.12 236.105 155.484 235.72 154.766C235.335 154.036 235.142 153.193 235.142 152.234C235.142 151.297 235.34 150.443 235.736 149.672C236.142 148.901 236.715 148.24 237.454 147.688C238.194 147.125 239.064 146.693 240.064 146.391C241.074 146.089 242.189 145.938 243.407 145.938C245.095 145.938 246.553 146.245 247.782 146.859C249.022 147.474 249.98 148.307 250.657 149.359C251.335 150.411 251.673 151.594 251.673 152.906H247.392C247.392 152.198 247.241 151.573 246.939 151.031C246.647 150.49 246.199 150.062 245.595 149.75C245.001 149.438 244.251 149.281 243.345 149.281C242.47 149.281 241.741 149.411 241.157 149.672C240.585 149.932 240.152 150.286 239.861 150.734C239.579 151.182 239.439 151.682 239.439 152.234C239.439 152.651 239.538 153.026 239.736 153.359C239.934 153.682 240.23 153.99 240.626 154.281C241.022 154.562 241.512 154.828 242.095 155.078C242.689 155.318 243.376 155.557 244.157 155.797C245.407 156.172 246.501 156.589 247.439 157.047C248.387 157.505 249.173 158.026 249.798 158.609C250.434 159.193 250.907 159.849 251.22 160.578C251.543 161.307 251.704 162.135 251.704 163.062C251.704 164.042 251.512 164.917 251.126 165.688C250.741 166.458 250.189 167.115 249.47 167.656C248.751 168.198 247.887 168.609 246.876 168.891C245.876 169.172 244.756 169.312 243.517 169.312C242.413 169.312 241.319 169.167 240.236 168.875C239.163 168.573 238.189 168.125 237.314 167.531C236.439 166.927 235.741 166.167 235.22 165.25C234.699 164.323 234.439 163.24 234.439 162H238.751C238.751 162.719 238.866 163.333 239.095 163.844C239.335 164.344 239.668 164.755 240.095 165.078C240.532 165.391 241.043 165.62 241.626 165.766C242.21 165.911 242.84 165.984 243.517 165.984C244.392 165.984 245.111 165.865 245.673 165.625C246.246 165.375 246.673 165.031 246.954 164.594C247.246 164.156 247.392 163.656 247.392 163.094Z" fill="#8E8E8E"/>
<path d="M188.376 78.0938C188.376 77.6562 188.308 77.2656 188.173 76.9219C188.048 76.5677 187.814 76.25 187.47 75.9688C187.136 75.6771 186.662 75.3958 186.048 75.125C185.444 74.8438 184.662 74.5521 183.704 74.25C182.642 73.9167 181.652 73.5417 180.735 73.125C179.819 72.7083 179.011 72.224 178.314 71.6719C177.626 71.1198 177.09 70.4844 176.704 69.7656C176.319 69.0365 176.126 68.1927 176.126 67.2344C176.126 66.2969 176.324 65.4427 176.72 64.6719C177.126 63.901 177.699 63.2396 178.439 62.6875C179.178 62.125 180.048 61.6927 181.048 61.3906C182.058 61.0885 183.173 60.9375 184.392 60.9375C186.079 60.9375 187.537 61.2448 188.767 61.8594C190.006 62.474 190.965 63.3073 191.642 64.3594C192.319 65.4115 192.657 66.5938 192.657 67.9062H188.376C188.376 67.1979 188.225 66.5729 187.923 66.0312C187.631 65.4896 187.183 65.0625 186.579 64.75C185.985 64.4375 185.235 64.2812 184.329 64.2812C183.454 64.2812 182.725 64.4115 182.142 64.6719C181.569 64.9323 181.136 65.2865 180.845 65.7344C180.564 66.1823 180.423 66.6823 180.423 67.2344C180.423 67.651 180.522 68.026 180.72 68.3594C180.918 68.6823 181.215 68.9896 181.61 69.2812C182.006 69.5625 182.496 69.8281 183.079 70.0781C183.673 70.3177 184.36 70.5573 185.142 70.7969C186.392 71.1719 187.485 71.5885 188.423 72.0469C189.371 72.5052 190.157 73.026 190.782 73.6094C191.418 74.1927 191.892 74.849 192.204 75.5781C192.527 76.3073 192.689 77.1354 192.689 78.0625C192.689 79.0417 192.496 79.9167 192.11 80.6875C191.725 81.4583 191.173 82.1146 190.454 82.6562C189.735 83.1979 188.871 83.6094 187.86 83.8906C186.86 84.1719 185.741 84.3125 184.501 84.3125C183.397 84.3125 182.303 84.1667 181.22 83.875C180.147 83.5729 179.173 83.125 178.298 82.5312C177.423 81.9271 176.725 81.1667 176.204 80.25C175.683 79.3229 175.423 78.2396 175.423 77H179.735C179.735 77.7188 179.85 78.3333 180.079 78.8438C180.319 79.3438 180.652 79.7552 181.079 80.0781C181.517 80.3906 182.027 80.6198 182.61 80.7656C183.194 80.9115 183.824 80.9844 184.501 80.9844C185.376 80.9844 186.095 80.8646 186.657 80.625C187.23 80.375 187.657 80.0312 187.939 79.5938C188.23 79.1562 188.376 78.6562 188.376 78.0938ZM208.497 61.25H212.794V76.3594C212.794 78.099 212.419 79.5625 211.669 80.75C210.919 81.9271 209.898 82.8177 208.607 83.4219C207.315 84.0156 205.846 84.3125 204.2 84.3125C202.534 84.3125 201.049 84.0156 199.747 83.4219C198.445 82.8177 197.424 81.9271 196.685 80.75C195.945 79.5625 195.575 78.099 195.575 76.3594V61.25H199.872V76.3594C199.872 77.4219 200.049 78.2917 200.404 78.9688C200.758 79.6354 201.258 80.1302 201.904 80.4531C202.549 80.776 203.315 80.9375 204.2 80.9375C205.096 80.9375 205.862 80.776 206.497 80.4531C207.143 80.1302 207.638 79.6354 207.982 78.9688C208.325 78.2917 208.497 77.4219 208.497 76.3594V61.25ZM216.712 61.25H224.978C226.707 61.25 228.191 61.5104 229.431 62.0312C230.671 62.5521 231.624 63.3229 232.29 64.3438C232.957 65.3646 233.29 66.6198 233.29 68.1094C233.29 69.2865 233.082 70.3073 232.665 71.1719C232.249 72.0365 231.66 72.7604 230.9 73.3438C230.15 73.9271 229.264 74.3854 228.244 74.7188L226.9 75.4062H219.603L219.572 72.0156H225.025C225.91 72.0156 226.645 71.8594 227.228 71.5469C227.811 71.2344 228.249 70.8021 228.54 70.25C228.842 69.6979 228.994 69.0677 228.994 68.3594C228.994 67.599 228.848 66.9427 228.556 66.3906C228.264 65.8281 227.822 65.3958 227.228 65.0938C226.634 64.7917 225.884 64.6406 224.978 64.6406H221.009V84H216.712V61.25ZM229.556 84L224.29 73.8125L228.837 73.7969L234.165 83.7812V84H229.556ZM236.896 61.25H245.162C246.891 61.25 248.375 61.5104 249.615 62.0312C250.854 62.5521 251.807 63.3229 252.474 64.3438C253.141 65.3646 253.474 66.6198 253.474 68.1094C253.474 69.2865 253.266 70.3073 252.849 71.1719C252.432 72.0365 251.844 72.7604 251.084 73.3438C250.334 73.9271 249.448 74.3854 248.427 74.7188L247.084 75.4062H239.787L239.755 72.0156H245.209C246.094 72.0156 246.828 71.8594 247.412 71.5469C247.995 71.2344 248.432 70.8021 248.724 70.25C249.026 69.6979 249.177 69.0677 249.177 68.3594C249.177 67.599 249.031 66.9427 248.74 66.3906C248.448 65.8281 248.005 65.3958 247.412 65.0938C246.818 64.7917 246.068 64.6406 245.162 64.6406H241.193V84H236.896V61.25ZM249.74 84L244.474 73.8125L249.021 73.7969L254.349 83.7812V84H249.74ZM272.158 80.625V84H260.064V80.625H272.158ZM261.377 61.25V84H257.08V61.25H261.377ZM270.58 70.6406V73.9375H260.064V70.6406H270.58ZM272.111 61.25V64.6406H260.064V61.25H272.111ZM284.029 64.7031L277.545 84H272.998L281.498 61.25H284.404L284.029 64.7031ZM289.451 84L282.935 64.7031L282.545 61.25H285.467L294.014 84H289.451ZM289.154 75.5469V78.9375H276.951V75.5469H289.154ZM310.635 80.625V84H299.197V80.625H310.635ZM300.494 61.25V84H296.197V61.25H300.494ZM327.955 84H323.049L323.08 80.625H327.955C329.278 80.625 330.388 80.3333 331.284 79.75C332.179 79.1562 332.856 78.3073 333.315 77.2031C333.773 76.0885 334.002 74.7552 334.002 73.2031V72.0312C334.002 70.8333 333.872 69.776 333.612 68.8594C333.351 67.9427 332.966 67.1719 332.455 66.5469C331.955 65.9219 331.336 65.4479 330.596 65.125C329.856 64.8021 329.007 64.6406 328.049 64.6406H322.955V61.25H328.049C329.57 61.25 330.955 61.5052 332.205 62.0156C333.466 62.526 334.554 63.2604 335.471 64.2188C336.398 65.1667 337.106 66.3021 337.596 67.625C338.096 68.9479 338.346 70.4271 338.346 72.0625V73.2031C338.346 74.8281 338.096 76.3073 337.596 77.6406C337.106 78.9635 336.398 80.099 335.471 81.0469C334.554 81.9948 333.461 82.724 332.19 83.2344C330.919 83.7448 329.507 84 327.955 84ZM325.455 61.25V84H321.159V61.25H325.455ZM360.264 72.0469V73.2188C360.264 74.9375 360.035 76.4844 359.577 77.8594C359.118 79.224 358.467 80.3854 357.624 81.3438C356.78 82.3021 355.775 83.0365 354.608 83.5469C353.441 84.0573 352.144 84.3125 350.717 84.3125C349.311 84.3125 348.019 84.0573 346.842 83.5469C345.676 83.0365 344.665 82.3021 343.811 81.3438C342.957 80.3854 342.295 79.224 341.827 77.8594C341.358 76.4844 341.124 74.9375 341.124 73.2188V72.0469C341.124 70.3177 341.358 68.7708 341.827 67.4062C342.295 66.0417 342.952 64.8802 343.795 63.9219C344.639 62.9531 345.644 62.2135 346.811 61.7031C347.988 61.1927 349.28 60.9375 350.686 60.9375C352.113 60.9375 353.41 61.1927 354.577 61.7031C355.743 62.2135 356.749 62.9531 357.592 63.9219C358.446 64.8802 359.103 66.0417 359.561 67.4062C360.03 68.7708 360.264 70.3177 360.264 72.0469ZM355.92 73.2188V72.0156C355.92 70.776 355.806 69.6875 355.577 68.75C355.347 67.8021 355.009 67.0052 354.561 66.3594C354.113 65.7135 353.561 65.2292 352.905 64.9062C352.249 64.5729 351.509 64.4062 350.686 64.4062C349.853 64.4062 349.113 64.5729 348.467 64.9062C347.832 65.2292 347.29 65.7135 346.842 66.3594C346.394 67.0052 346.051 67.8021 345.811 68.75C345.582 69.6875 345.467 70.776 345.467 72.0156V73.2188C345.467 74.4479 345.582 75.5365 345.811 76.4844C346.051 77.4323 346.394 78.2344 346.842 78.8906C347.301 79.5365 347.853 80.026 348.499 80.3594C349.144 80.6927 349.884 80.8594 350.717 80.8594C351.551 80.8594 352.29 80.6927 352.936 80.3594C353.582 80.026 354.124 79.5365 354.561 78.8906C355.009 78.2344 355.347 77.4323 355.577 76.4844C355.806 75.5365 355.92 74.4479 355.92 73.2188ZM377.057 76.5156H381.354C381.24 78.0365 380.818 79.3854 380.089 80.5625C379.359 81.7292 378.344 82.6458 377.042 83.3125C375.74 83.9792 374.161 84.3125 372.307 84.3125C370.88 84.3125 369.594 84.0625 368.448 83.5625C367.312 83.0521 366.339 82.3281 365.526 81.3906C364.724 80.4427 364.109 79.3073 363.682 77.9844C363.255 76.651 363.042 75.1562 363.042 73.5V71.7656C363.042 70.1094 363.26 68.6146 363.698 67.2812C364.135 65.9479 364.76 64.8125 365.573 63.875C366.396 62.9271 367.38 62.1979 368.526 61.6875C369.682 61.1771 370.974 60.9219 372.401 60.9219C374.255 60.9219 375.823 61.2656 377.104 61.9531C378.385 62.6302 379.38 63.5625 380.089 64.75C380.797 65.9375 381.224 67.3021 381.37 68.8438H377.073C376.99 67.8854 376.781 67.0729 376.448 66.4062C376.125 65.7396 375.635 65.2344 374.979 64.8906C374.333 64.5365 373.474 64.3594 372.401 64.3594C371.568 64.3594 370.833 64.5156 370.198 64.8281C369.573 65.1406 369.052 65.6094 368.635 66.2344C368.219 66.849 367.906 67.6198 367.698 68.5469C367.49 69.4635 367.385 70.526 367.385 71.7344V73.5C367.385 74.6562 367.479 75.6927 367.667 76.6094C367.854 77.526 368.146 78.3021 368.542 78.9375C368.937 79.5729 369.448 80.0573 370.073 80.3906C370.698 80.724 371.443 80.8906 372.307 80.8906C373.359 80.8906 374.214 80.724 374.87 80.3906C375.536 80.0573 376.042 79.5677 376.385 78.9219C376.74 78.276 376.964 77.474 377.057 76.5156ZM396.429 78.0938C396.429 77.6562 396.361 77.2656 396.225 76.9219C396.1 76.5677 395.866 76.25 395.522 75.9688C395.189 75.6771 394.715 75.3958 394.1 75.125C393.496 74.8438 392.715 74.5521 391.757 74.25C390.694 73.9167 389.705 73.5417 388.788 73.125C387.871 72.7083 387.064 72.224 386.366 71.6719C385.679 71.1198 385.142 70.4844 384.757 69.7656C384.371 69.0365 384.179 68.1927 384.179 67.2344C384.179 66.2969 384.376 65.4427 384.772 64.6719C385.179 63.901 385.751 63.2396 386.491 62.6875C387.231 62.125 388.1 61.6927 389.1 61.3906C390.111 61.0885 391.225 60.9375 392.444 60.9375C394.132 60.9375 395.59 61.2448 396.819 61.8594C398.059 62.474 399.017 63.3073 399.694 64.3594C400.371 65.4115 400.71 66.5938 400.71 67.9062H396.429C396.429 67.1979 396.277 66.5729 395.975 66.0312C395.684 65.4896 395.236 65.0625 394.632 64.75C394.038 64.4375 393.288 64.2812 392.382 64.2812C391.507 64.2812 390.777 64.4115 390.194 64.6719C389.621 64.9323 389.189 65.2865 388.897 65.7344C388.616 66.1823 388.475 66.6823 388.475 67.2344C388.475 67.651 388.574 68.026 388.772 68.3594C388.97 68.6823 389.267 68.9896 389.663 69.2812C390.059 69.5625 390.548 69.8281 391.132 70.0781C391.725 70.3177 392.413 70.5573 393.194 70.7969C394.444 71.1719 395.538 71.5885 396.475 72.0469C397.423 72.5052 398.21 73.026 398.835 73.6094C399.47 74.1927 399.944 74.849 400.257 75.5781C400.58 76.3073 400.741 77.1354 400.741 78.0625C400.741 79.0417 400.548 79.9167 400.163 80.6875C399.777 81.4583 399.225 82.1146 398.507 82.6562C397.788 83.1979 396.923 83.6094 395.913 83.8906C394.913 84.1719 393.793 84.3125 392.554 84.3125C391.449 84.3125 390.356 84.1667 389.272 83.875C388.199 83.5729 387.225 83.125 386.35 82.5312C385.475 81.9271 384.777 81.1667 384.257 80.25C383.736 79.3229 383.475 78.2396 383.475 77H387.788C387.788 77.7188 387.902 78.3333 388.132 78.8438C388.371 79.3438 388.705 79.7552 389.132 80.0781C389.569 80.3906 390.08 80.6198 390.663 80.7656C391.246 80.9115 391.876 80.9844 392.554 80.9844C393.429 80.9844 394.147 80.8646 394.71 80.625C395.283 80.375 395.71 80.0312 395.991 79.5938C396.283 79.1562 396.429 78.6562 396.429 78.0938Z" fill="#8E8E8E"/>
<path d="M-110.624 78.0938C-110.624 77.6562 -110.692 77.2656 -110.827 76.9219C-110.952 76.5677 -111.186 76.25 -111.53 75.9688C-111.864 75.6771 -112.338 75.3958 -112.952 75.125C-113.556 74.8438 -114.338 74.5521 -115.296 74.25C-116.358 73.9167 -117.348 73.5417 -118.265 73.125C-119.181 72.7083 -119.989 72.224 -120.686 71.6719C-121.374 71.1198 -121.91 70.4844 -122.296 69.7656C-122.681 69.0365 -122.874 68.1927 -122.874 67.2344C-122.874 66.2969 -122.676 65.4427 -122.28 64.6719C-121.874 63.901 -121.301 63.2396 -120.561 62.6875C-119.822 62.125 -118.952 61.6927 -117.952 61.3906C-116.942 61.0885 -115.827 60.9375 -114.608 60.9375C-112.921 60.9375 -111.463 61.2448 -110.233 61.8594C-108.994 62.474 -108.035 63.3073 -107.358 64.3594C-106.681 65.4115 -106.343 66.5938 -106.343 67.9062H-110.624C-110.624 67.1979 -110.775 66.5729 -111.077 66.0312C-111.369 65.4896 -111.817 65.0625 -112.421 64.75C-113.015 64.4375 -113.765 64.2812 -114.671 64.2812C-115.546 64.2812 -116.275 64.4115 -116.858 64.6719C-117.431 64.9323 -117.864 65.2865 -118.155 65.7344C-118.436 66.1823 -118.577 66.6823 -118.577 67.2344C-118.577 67.651 -118.478 68.026 -118.28 68.3594C-118.082 68.6823 -117.785 68.9896 -117.39 69.2812C-116.994 69.5625 -116.504 69.8281 -115.921 70.0781C-115.327 70.3177 -114.64 70.5573 -113.858 70.7969C-112.608 71.1719 -111.515 71.5885 -110.577 72.0469C-109.629 72.5052 -108.843 73.026 -108.218 73.6094C-107.582 74.1927 -107.108 74.849 -106.796 75.5781C-106.473 76.3073 -106.311 77.1354 -106.311 78.0625C-106.311 79.0417 -106.504 79.9167 -106.89 80.6875C-107.275 81.4583 -107.827 82.1146 -108.546 82.6562C-109.265 83.1979 -110.129 83.6094 -111.14 83.8906C-112.14 84.1719 -113.259 84.3125 -114.499 84.3125C-115.603 84.3125 -116.697 84.1667 -117.78 83.875C-118.853 83.5729 -119.827 83.125 -120.702 82.5312C-121.577 81.9271 -122.275 81.1667 -122.796 80.25C-123.317 79.3229 -123.577 78.2396 -123.577 77H-119.265C-119.265 77.7188 -119.15 78.3333 -118.921 78.8438C-118.681 79.3438 -118.348 79.7552 -117.921 80.0781C-117.483 80.3906 -116.973 80.6198 -116.39 80.7656C-115.806 80.9115 -115.176 80.9844 -114.499 80.9844C-113.624 80.9844 -112.905 80.8646 -112.343 80.625C-111.77 80.375 -111.343 80.0312 -111.061 79.5938C-110.77 79.1562 -110.624 78.6562 -110.624 78.0938ZM-90.5027 61.25H-86.2058V76.3594C-86.2058 78.099 -86.5808 79.5625 -87.3308 80.75C-88.0808 81.9271 -89.1017 82.8177 -90.3933 83.4219C-91.685 84.0156 -93.1538 84.3125 -94.7996 84.3125C-96.4663 84.3125 -97.9506 84.0156 -99.2527 83.4219C-100.555 82.8177 -101.576 81.9271 -102.315 80.75C-103.055 79.5625 -103.425 78.099 -103.425 76.3594V61.25H-99.1277V76.3594C-99.1277 77.4219 -98.9506 78.2917 -98.5965 78.9688C-98.2423 79.6354 -97.7423 80.1302 -97.0965 80.4531C-96.4506 80.776 -95.685 80.9375 -94.7996 80.9375C-93.9038 80.9375 -93.1381 80.776 -92.5027 80.4531C-91.8569 80.1302 -91.3621 79.6354 -91.0183 78.9688C-90.6746 78.2917 -90.5027 77.4219 -90.5027 76.3594V61.25ZM-82.2877 61.25H-74.0221C-72.2929 61.25 -70.8086 61.5104 -69.569 62.0312C-68.3294 62.5521 -67.3763 63.3229 -66.7096 64.3438C-66.0429 65.3646 -65.7096 66.6198 -65.7096 68.1094C-65.7096 69.2865 -65.9179 70.3073 -66.3346 71.1719C-66.7513 72.0365 -67.3398 72.7604 -68.1002 73.3438C-68.8502 73.9271 -69.7356 74.3854 -70.7565 74.7188L-72.1002 75.4062H-79.3971L-79.4283 72.0156H-73.9752C-73.0898 72.0156 -72.3554 71.8594 -71.7721 71.5469C-71.1888 71.2344 -70.7513 70.8021 -70.4596 70.25C-70.1575 69.6979 -70.0065 69.0677 -70.0065 68.3594C-70.0065 67.599 -70.1523 66.9427 -70.444 66.3906C-70.7356 65.8281 -71.1783 65.3958 -71.7721 65.0938C-72.3658 64.7917 -73.1158 64.6406 -74.0221 64.6406H-77.9908V84H-82.2877V61.25ZM-69.444 84L-74.7096 73.8125L-70.1627 73.7969L-64.8346 83.7812V84H-69.444ZM-62.104 61.25H-53.8383C-52.1092 61.25 -50.6248 61.5104 -49.3852 62.0312C-48.1456 62.5521 -47.1925 63.3229 -46.5258 64.3438C-45.8592 65.3646 -45.5258 66.6198 -45.5258 68.1094C-45.5258 69.2865 -45.7342 70.3073 -46.1508 71.1719C-46.5675 72.0365 -47.1561 72.7604 -47.9165 73.3438C-48.6665 73.9271 -49.5519 74.3854 -50.5727 74.7188L-51.9165 75.4062H-59.2133L-59.2446 72.0156H-53.7915C-52.9061 72.0156 -52.1717 71.8594 -51.5883 71.5469C-51.005 71.2344 -50.5675 70.8021 -50.2758 70.25C-49.9738 69.6979 -49.8227 69.0677 -49.8227 68.3594C-49.8227 67.599 -49.9686 66.9427 -50.2602 66.3906C-50.5519 65.8281 -50.9946 65.3958 -51.5883 65.0938C-52.1821 64.7917 -52.9321 64.6406 -53.8383 64.6406H-57.8071V84H-62.104V61.25ZM-49.2602 84L-54.5258 73.8125L-49.979 73.7969L-44.6508 83.7812V84H-49.2602ZM-26.8421 80.625V84H-38.9359V80.625H-26.8421ZM-37.6234 61.25V84H-41.9202V61.25H-37.6234ZM-28.4202 70.6406V73.9375H-38.9359V70.6406H-28.4202ZM-26.889 61.25V64.6406H-38.9359V61.25H-26.889ZM-14.9709 64.7031L-21.4552 84H-26.0021L-17.5021 61.25H-14.5959L-14.9709 64.7031ZM-9.54898 84L-16.0646 64.7031L-16.4552 61.25H-13.5334L-4.98648 84H-9.54898ZM-9.84586 75.5469V78.9375H-22.049V75.5469H-9.84586ZM11.6348 80.625V84H0.197266V80.625H11.6348ZM1.49414 61.25V84H-2.80273V61.25H1.49414ZM28.9554 84H24.0491L24.0804 80.625H28.9554C30.2783 80.625 31.3877 80.3333 32.2835 79.75C33.1794 79.1562 33.8564 78.3073 34.3148 77.2031C34.7731 76.0885 35.0023 74.7552 35.0023 73.2031V72.0312C35.0023 70.8333 34.8721 69.776 34.6116 68.8594C34.3512 67.9427 33.9658 67.1719 33.4554 66.5469C32.9554 65.9219 32.3356 65.4479 31.596 65.125C30.8564 64.8021 30.0075 64.6406 29.0491 64.6406H23.9554V61.25H29.0491C30.57 61.25 31.9554 61.5052 33.2054 62.0156C34.4658 62.526 35.5544 63.2604 36.471 64.2188C37.3981 65.1667 38.1064 66.3021 38.596 67.625C39.096 68.9479 39.346 70.4271 39.346 72.0625V73.2031C39.346 74.8281 39.096 76.3073 38.596 77.6406C38.1064 78.9635 37.3981 80.099 36.471 81.0469C35.5544 81.9948 34.4606 82.724 33.1898 83.2344C31.9189 83.7448 30.5075 84 28.9554 84ZM26.4554 61.25V84H22.1585V61.25H26.4554ZM61.2641 72.0469V73.2188C61.2641 74.9375 61.035 76.4844 60.5766 77.8594C60.1183 79.224 59.4673 80.3854 58.6235 81.3438C57.7798 82.3021 56.7746 83.0365 55.6079 83.5469C54.4412 84.0573 53.1444 84.3125 51.7173 84.3125C50.311 84.3125 49.0194 84.0573 47.8423 83.5469C46.6756 83.0365 45.6652 82.3021 44.811 81.3438C43.9569 80.3854 43.2954 79.224 42.8266 77.8594C42.3579 76.4844 42.1235 74.9375 42.1235 73.2188V72.0469C42.1235 70.3177 42.3579 68.7708 42.8266 67.4062C43.2954 66.0417 43.9516 64.8802 44.7954 63.9219C45.6391 62.9531 46.6444 62.2135 47.811 61.7031C48.9881 61.1927 50.2798 60.9375 51.686 60.9375C53.1131 60.9375 54.41 61.1927 55.5766 61.7031C56.7433 62.2135 57.7485 62.9531 58.5923 63.9219C59.4464 64.8802 60.1027 66.0417 60.561 67.4062C61.0298 68.7708 61.2641 70.3177 61.2641 72.0469ZM56.9204 73.2188V72.0156C56.9204 70.776 56.8058 69.6875 56.5766 68.75C56.3475 67.8021 56.0089 67.0052 55.561 66.3594C55.1131 65.7135 54.561 65.2292 53.9048 64.9062C53.2485 64.5729 52.5089 64.4062 51.686 64.4062C50.8527 64.4062 50.1131 64.5729 49.4673 64.9062C48.8319 65.2292 48.2902 65.7135 47.8423 66.3594C47.3944 67.0052 47.0506 67.8021 46.811 68.75C46.5819 69.6875 46.4673 70.776 46.4673 72.0156V73.2188C46.4673 74.4479 46.5819 75.5365 46.811 76.4844C47.0506 77.4323 47.3944 78.2344 47.8423 78.8906C48.3006 79.5365 48.8527 80.026 49.4985 80.3594C50.1444 80.6927 50.8839 80.8594 51.7173 80.8594C52.5506 80.8594 53.2902 80.6927 53.936 80.3594C54.5819 80.026 55.1235 79.5365 55.561 78.8906C56.0089 78.2344 56.3475 77.4323 56.5766 76.4844C56.8058 75.5365 56.9204 74.4479 56.9204 73.2188ZM78.0573 76.5156H82.3542C82.2396 78.0365 81.8177 79.3854 81.0885 80.5625C80.3594 81.7292 79.3437 82.6458 78.0417 83.3125C76.7396 83.9792 75.1614 84.3125 73.3073 84.3125C71.8802 84.3125 70.5937 84.0625 69.4479 83.5625C68.3125 83.0521 67.3385 82.3281 66.526 81.3906C65.7239 80.4427 65.1094 79.3073 64.6823 77.9844C64.2552 76.651 64.0417 75.1562 64.0417 73.5V71.7656C64.0417 70.1094 64.2604 68.6146 64.6979 67.2812C65.1354 65.9479 65.7604 64.8125 66.5729 63.875C67.3958 62.9271 68.3802 62.1979 69.526 61.6875C70.6823 61.1771 71.9739 60.9219 73.401 60.9219C75.2552 60.9219 76.8229 61.2656 78.1042 61.9531C79.3854 62.6302 80.3802 63.5625 81.0885 64.75C81.7969 65.9375 82.2239 67.3021 82.3698 68.8438H78.0729C77.9896 67.8854 77.7812 67.0729 77.4479 66.4062C77.125 65.7396 76.6354 65.2344 75.9792 64.8906C75.3333 64.5365 74.4739 64.3594 73.401 64.3594C72.5677 64.3594 71.8333 64.5156 71.1979 64.8281C70.5729 65.1406 70.0521 65.6094 69.6354 66.2344C69.2187 66.849 68.9062 67.6198 68.6979 68.5469C68.4896 69.4635 68.3854 70.526 68.3854 71.7344V73.5C68.3854 74.6562 68.4792 75.6927 68.6667 76.6094C68.8542 77.526 69.1458 78.3021 69.5417 78.9375C69.9375 79.5729 70.4479 80.0573 71.0729 80.3906C71.6979 80.724 72.4427 80.8906 73.3073 80.8906C74.3594 80.8906 75.2135 80.724 75.8698 80.3906C76.5364 80.0573 77.0417 79.5677 77.3854 78.9219C77.7396 78.276 77.9635 77.474 78.0573 76.5156ZM97.4285 78.0938C97.4285 77.6562 97.3608 77.2656 97.2254 76.9219C97.1004 76.5677 96.866 76.25 96.5223 75.9688C96.1889 75.6771 95.715 75.3958 95.1004 75.125C94.4962 74.8438 93.715 74.5521 92.7567 74.25C91.6942 73.9167 90.7046 73.5417 89.7879 73.125C88.8712 72.7083 88.0639 72.224 87.366 71.6719C86.6785 71.1198 86.1421 70.4844 85.7567 69.7656C85.3712 69.0365 85.1785 68.1927 85.1785 67.2344C85.1785 66.2969 85.3764 65.4427 85.7723 64.6719C86.1785 63.901 86.7514 63.2396 87.491 62.6875C88.2306 62.125 89.1004 61.6927 90.1004 61.3906C91.1108 61.0885 92.2254 60.9375 93.4442 60.9375C95.1317 60.9375 96.59 61.2448 97.8192 61.8594C99.0587 62.474 100.017 63.3073 100.694 64.3594C101.371 65.4115 101.71 66.5938 101.71 67.9062H97.4285C97.4285 67.1979 97.2775 66.5729 96.9754 66.0312C96.6837 65.4896 96.2358 65.0625 95.6317 64.75C95.0379 64.4375 94.2879 64.2812 93.3817 64.2812C92.5067 64.2812 91.7775 64.4115 91.1942 64.6719C90.6212 64.9323 90.1889 65.2865 89.8973 65.7344C89.616 66.1823 89.4754 66.6823 89.4754 67.2344C89.4754 67.651 89.5744 68.026 89.7723 68.3594C89.9702 68.6823 90.2671 68.9896 90.6629 69.2812C91.0587 69.5625 91.5483 69.8281 92.1317 70.0781C92.7254 70.3177 93.4129 70.5573 94.1942 70.7969C95.4442 71.1719 96.5379 71.5885 97.4754 72.0469C98.4233 72.5052 99.2098 73.026 99.8348 73.6094C100.47 74.1927 100.944 74.849 101.257 75.5781C101.58 76.3073 101.741 77.1354 101.741 78.0625C101.741 79.0417 101.548 79.9167 101.163 80.6875C100.777 81.4583 100.225 82.1146 99.5067 82.6562C98.7879 83.1979 97.9233 83.6094 96.9129 83.8906C95.9129 84.1719 94.7931 84.3125 93.5535 84.3125C92.4494 84.3125 91.3556 84.1667 90.2723 83.875C89.1994 83.5729 88.2254 83.125 87.3504 82.5312C86.4754 81.9271 85.7775 81.1667 85.2567 80.25C84.7358 79.3229 84.4754 78.2396 84.4754 77H88.7879C88.7879 77.7188 88.9025 78.3333 89.1317 78.8438C89.3712 79.3438 89.7046 79.7552 90.1317 80.0781C90.5692 80.3906 91.0796 80.6198 91.6629 80.7656C92.2462 80.9115 92.8764 80.9844 93.5535 80.9844C94.4285 80.9844 95.1473 80.8646 95.7098 80.625C96.2827 80.375 96.7098 80.0312 96.991 79.5938C97.2827 79.1562 97.4285 78.6562 97.4285 78.0938Z" fill="#8E8E8E"/>
</g>
</svg>
