<svg width="651" height="169" viewBox="0 0 651 169" fill="none" xmlns="http://www.w3.org/2000/svg">
<mask id="mask0_5_372" style="mask-type:alpha" maskUnits="userSpaceOnUse" x="0" y="0" width="651" height="169">
<rect width="651" height="169" fill="#D9D9D9"/>
</mask>
<g mask="url(#mask0_5_372)">
<path d="M66.9375 146.25V169H62.6562V146.25H66.9375ZM74 146.25V149.641H55.6719V146.25H74ZM76.6994 146.25H84.965C86.6942 146.25 88.1785 146.51 89.4181 147.031C90.6577 147.552 91.6108 148.323 92.2775 149.344C92.9442 150.365 93.2775 151.62 93.2775 153.109C93.2775 154.286 93.0692 155.307 92.6525 156.172C92.2358 157.036 91.6473 157.76 90.8869 158.344C90.1369 158.927 89.2515 159.385 88.2306 159.719L86.8869 160.406H79.59L79.5588 157.016H85.0119C85.8973 157.016 86.6317 156.859 87.215 156.547C87.7983 156.234 88.2358 155.802 88.5275 155.25C88.8296 154.698 88.9806 154.068 88.9806 153.359C88.9806 152.599 88.8348 151.943 88.5431 151.391C88.2515 150.828 87.8088 150.396 87.215 150.094C86.6213 149.792 85.8713 149.641 84.965 149.641H80.9963V169H76.6994V146.25ZM89.5431 169L84.2775 158.812L88.8244 158.797L94.1525 168.781V169H89.5431ZM101.461 146.25V169H97.1644V146.25H101.461ZM115.27 149.703L108.786 169H104.239L112.739 146.25H115.645L115.27 149.703ZM120.692 169L114.176 149.703L113.786 146.25H116.708L125.254 169H120.692ZM120.395 160.547V163.938H108.192V160.547H120.395ZM141.876 165.625V169H130.438V165.625H141.876ZM131.735 146.25V169H127.438V146.25H131.735ZM160.399 164.547L166.071 146.25H170.837L162.806 169H159.634L160.399 164.547ZM155.165 146.25L160.806 164.547L161.618 169H158.415L150.415 146.25H155.165ZM188.099 165.625V169H176.005V165.625H188.099ZM177.317 146.25V169H173.021V146.25H177.317ZM186.521 155.641V158.938H176.005V155.641H186.521ZM188.052 146.25V149.641H176.005V146.25H188.052ZM190.923 146.25H199.189C200.918 146.25 202.402 146.51 203.642 147.031C204.881 147.552 205.835 148.323 206.501 149.344C207.168 150.365 207.501 151.62 207.501 153.109C207.501 154.286 207.293 155.307 206.876 156.172C206.46 157.036 205.871 157.76 205.111 158.344C204.361 158.927 203.475 159.385 202.454 159.719L201.111 160.406H193.814L193.783 157.016H199.236C200.121 157.016 200.855 156.859 201.439 156.547C202.022 156.234 202.46 155.802 202.751 155.25C203.053 154.698 203.204 154.068 203.204 153.359C203.204 152.599 203.059 151.943 202.767 151.391C202.475 150.828 202.033 150.396 201.439 150.094C200.845 149.792 200.095 149.641 199.189 149.641H195.22V169H190.923V146.25ZM203.767 169L198.501 158.812L203.048 158.797L208.376 168.781V169H203.767ZM223.013 163.094C223.013 162.656 222.945 162.266 222.81 161.922C222.685 161.568 222.451 161.25 222.107 160.969C221.774 160.677 221.3 160.396 220.685 160.125C220.081 159.844 219.3 159.552 218.341 159.25C217.279 158.917 216.289 158.542 215.372 158.125C214.456 157.708 213.649 157.224 212.951 156.672C212.263 156.12 211.727 155.484 211.341 154.766C210.956 154.036 210.763 153.193 210.763 152.234C210.763 151.297 210.961 150.443 211.357 149.672C211.763 148.901 212.336 148.24 213.076 147.688C213.815 147.125 214.685 146.693 215.685 146.391C216.695 146.089 217.81 145.938 219.029 145.938C220.716 145.938 222.175 146.245 223.404 146.859C224.643 147.474 225.602 148.307 226.279 149.359C226.956 150.411 227.294 151.594 227.294 152.906H223.013C223.013 152.198 222.862 151.573 222.56 151.031C222.268 150.49 221.82 150.062 221.216 149.75C220.622 149.438 219.872 149.281 218.966 149.281C218.091 149.281 217.362 149.411 216.779 149.672C216.206 149.932 215.774 150.286 215.482 150.734C215.201 151.182 215.06 151.682 215.06 152.234C215.06 152.651 215.159 153.026 215.357 153.359C215.555 153.682 215.852 153.99 216.247 154.281C216.643 154.562 217.133 154.828 217.716 155.078C218.31 155.318 218.997 155.557 219.779 155.797C221.029 156.172 222.122 156.589 223.06 157.047C224.008 157.505 224.794 158.026 225.419 158.609C226.055 159.193 226.529 159.849 226.841 160.578C227.164 161.307 227.326 162.135 227.326 163.062C227.326 164.042 227.133 164.917 226.747 165.688C226.362 166.458 225.81 167.115 225.091 167.656C224.372 168.198 223.508 168.609 222.497 168.891C221.497 169.172 220.378 169.312 219.138 169.312C218.034 169.312 216.94 169.167 215.857 168.875C214.784 168.573 213.81 168.125 212.935 167.531C212.06 166.927 211.362 166.167 210.841 165.25C210.32 164.323 210.06 163.24 210.06 162H214.372C214.372 162.719 214.487 163.333 214.716 163.844C214.956 164.344 215.289 164.755 215.716 165.078C216.154 165.391 216.664 165.62 217.247 165.766C217.831 165.911 218.461 165.984 219.138 165.984C220.013 165.984 220.732 165.865 221.294 165.625C221.867 165.375 222.294 165.031 222.576 164.594C222.867 164.156 223.013 163.656 223.013 163.094ZM235.056 146.25V169H230.759V146.25H235.056ZM257.959 157.047V158.219C257.959 159.938 257.73 161.484 257.271 162.859C256.813 164.224 256.162 165.385 255.318 166.344C254.474 167.302 253.469 168.036 252.303 168.547C251.136 169.057 249.839 169.312 248.412 169.312C247.006 169.312 245.714 169.057 244.537 168.547C243.37 168.036 242.36 167.302 241.506 166.344C240.651 165.385 239.99 164.224 239.521 162.859C239.053 161.484 238.818 159.938 238.818 158.219V157.047C238.818 155.318 239.053 153.771 239.521 152.406C239.99 151.042 240.646 149.88 241.49 148.922C242.334 147.953 243.339 147.214 244.506 146.703C245.683 146.193 246.974 145.938 248.381 145.938C249.808 145.938 251.105 146.193 252.271 146.703C253.438 147.214 254.443 147.953 255.287 148.922C256.141 149.88 256.797 151.042 257.256 152.406C257.724 153.771 257.959 155.318 257.959 157.047ZM253.615 158.219V157.016C253.615 155.776 253.5 154.688 253.271 153.75C253.042 152.802 252.704 152.005 252.256 151.359C251.808 150.714 251.256 150.229 250.599 149.906C249.943 149.573 249.204 149.406 248.381 149.406C247.547 149.406 246.808 149.573 246.162 149.906C245.526 150.229 244.985 150.714 244.537 151.359C244.089 152.005 243.745 152.802 243.506 153.75C243.276 154.688 243.162 155.776 243.162 157.016V158.219C243.162 159.448 243.276 160.536 243.506 161.484C243.745 162.432 244.089 163.234 244.537 163.891C244.995 164.536 245.547 165.026 246.193 165.359C246.839 165.693 247.579 165.859 248.412 165.859C249.245 165.859 249.985 165.693 250.631 165.359C251.276 165.026 251.818 164.536 252.256 163.891C252.704 163.234 253.042 162.432 253.271 161.484C253.5 160.536 253.615 159.448 253.615 158.219ZM279.721 146.25V169H275.408L265.736 153.219V169H261.439V146.25H265.736L275.439 162.047V146.25H279.721ZM310.166 157.047V158.219C310.166 159.938 309.937 161.484 309.479 162.859C309.02 164.224 308.369 165.385 307.526 166.344C306.682 167.302 305.677 168.036 304.51 168.547C303.343 169.057 302.046 169.312 300.619 169.312C299.213 169.312 297.921 169.057 296.744 168.547C295.578 168.036 294.567 167.302 293.713 166.344C292.859 165.385 292.197 164.224 291.729 162.859C291.26 161.484 291.026 159.938 291.026 158.219V157.047C291.026 155.318 291.26 153.771 291.729 152.406C292.197 151.042 292.854 149.88 293.697 148.922C294.541 147.953 295.546 147.214 296.713 146.703C297.89 146.193 299.182 145.938 300.588 145.938C302.015 145.938 303.312 146.193 304.479 146.703C305.645 147.214 306.651 147.953 307.494 148.922C308.349 149.88 309.005 151.042 309.463 152.406C309.932 153.771 310.166 155.318 310.166 157.047ZM305.822 158.219V157.016C305.822 155.776 305.708 154.688 305.479 153.75C305.25 152.802 304.911 152.005 304.463 151.359C304.015 150.714 303.463 150.229 302.807 149.906C302.151 149.573 301.411 149.406 300.588 149.406C299.755 149.406 299.015 149.573 298.369 149.906C297.734 150.229 297.192 150.714 296.744 151.359C296.296 152.005 295.953 152.802 295.713 153.75C295.484 154.688 295.369 155.776 295.369 157.016V158.219C295.369 159.448 295.484 160.536 295.713 161.484C295.953 162.432 296.296 163.234 296.744 163.891C297.203 164.536 297.755 165.026 298.401 165.359C299.046 165.693 299.786 165.859 300.619 165.859C301.453 165.859 302.192 165.693 302.838 165.359C303.484 165.026 304.026 164.536 304.463 163.891C304.911 163.234 305.25 162.432 305.479 161.484C305.708 160.536 305.822 159.448 305.822 158.219ZM317.944 146.25V169H313.647V146.25H317.944ZM327.116 156.078V159.469H316.819V156.078H327.116ZM328.319 146.25V149.641H316.819V146.25H328.319ZM350.796 163.094C350.796 162.656 350.728 162.266 350.592 161.922C350.467 161.568 350.233 161.25 349.889 160.969C349.556 160.677 349.082 160.396 348.467 160.125C347.863 159.844 347.082 159.552 346.124 159.25C345.061 158.917 344.072 158.542 343.155 158.125C342.238 157.708 341.431 157.224 340.733 156.672C340.046 156.12 339.509 155.484 339.124 154.766C338.738 154.036 338.546 153.193 338.546 152.234C338.546 151.297 338.744 150.443 339.139 149.672C339.546 148.901 340.119 148.24 340.858 147.688C341.598 147.125 342.467 146.693 343.467 146.391C344.478 146.089 345.592 145.938 346.811 145.938C348.499 145.938 349.957 146.245 351.186 146.859C352.426 147.474 353.384 148.307 354.061 149.359C354.738 150.411 355.077 151.594 355.077 152.906H350.796C350.796 152.198 350.645 151.573 350.342 151.031C350.051 150.49 349.603 150.062 348.999 149.75C348.405 149.438 347.655 149.281 346.749 149.281C345.874 149.281 345.145 149.411 344.561 149.672C343.988 149.932 343.556 150.286 343.264 150.734C342.983 151.182 342.842 151.682 342.842 152.234C342.842 152.651 342.941 153.026 343.139 153.359C343.337 153.682 343.634 153.99 344.03 154.281C344.426 154.562 344.915 154.828 345.499 155.078C346.092 155.318 346.78 155.557 347.561 155.797C348.811 156.172 349.905 156.589 350.842 157.047C351.79 157.505 352.577 158.026 353.202 158.609C353.837 159.193 354.311 159.849 354.624 160.578C354.947 161.307 355.108 162.135 355.108 163.062C355.108 164.042 354.915 164.917 354.53 165.688C354.145 166.458 353.592 167.115 352.874 167.656C352.155 168.198 351.29 168.609 350.28 168.891C349.28 169.172 348.16 169.312 346.921 169.312C345.816 169.312 344.723 169.167 343.639 168.875C342.566 168.573 341.592 168.125 340.717 167.531C339.842 166.927 339.145 166.167 338.624 165.25C338.103 164.323 337.842 163.24 337.842 162H342.155C342.155 162.719 342.27 163.333 342.499 163.844C342.738 164.344 343.072 164.755 343.499 165.078C343.936 165.391 344.447 165.62 345.03 165.766C345.613 165.911 346.244 165.984 346.921 165.984C347.796 165.984 348.514 165.865 349.077 165.625C349.65 165.375 350.077 165.031 350.358 164.594C350.65 164.156 350.796 163.656 350.796 163.094ZM370.917 146.25H375.214V161.359C375.214 163.099 374.839 164.562 374.089 165.75C373.339 166.927 372.318 167.818 371.026 168.422C369.735 169.016 368.266 169.312 366.62 169.312C364.953 169.312 363.469 169.016 362.167 168.422C360.865 167.818 359.844 166.927 359.104 165.75C358.365 164.562 357.995 163.099 357.995 161.359V146.25H362.292V161.359C362.292 162.422 362.469 163.292 362.823 163.969C363.177 164.635 363.677 165.13 364.323 165.453C364.969 165.776 365.735 165.938 366.62 165.938C367.516 165.938 368.281 165.776 368.917 165.453C369.563 165.13 370.057 164.635 370.401 163.969C370.745 163.292 370.917 162.422 370.917 161.359V146.25ZM379.132 146.25H387.397C389.127 146.25 390.611 146.51 391.851 147.031C393.09 147.552 394.043 148.323 394.71 149.344C395.377 150.365 395.71 151.62 395.71 153.109C395.71 154.286 395.502 155.307 395.085 156.172C394.668 157.036 394.08 157.76 393.319 158.344C392.569 158.927 391.684 159.385 390.663 159.719L389.319 160.406H382.022L381.991 157.016H387.444C388.33 157.016 389.064 156.859 389.647 156.547C390.231 156.234 390.668 155.802 390.96 155.25C391.262 154.698 391.413 154.068 391.413 153.359C391.413 152.599 391.267 151.943 390.976 151.391C390.684 150.828 390.241 150.396 389.647 150.094C389.054 149.792 388.304 149.641 387.397 149.641H383.429V169H379.132V146.25ZM391.976 169L386.71 158.812L391.257 158.797L396.585 168.781V169H391.976ZM399.316 146.25H407.581C409.31 146.25 410.795 146.51 412.034 147.031C413.274 147.552 414.227 148.323 414.894 149.344C415.56 150.365 415.894 151.62 415.894 153.109C415.894 154.286 415.685 155.307 415.269 156.172C414.852 157.036 414.264 157.76 413.503 158.344C412.753 158.927 411.868 159.385 410.847 159.719L409.503 160.406H402.206L402.175 157.016H407.628C408.514 157.016 409.248 156.859 409.831 156.547C410.415 156.234 410.852 155.802 411.144 155.25C411.446 154.698 411.597 154.068 411.597 153.359C411.597 152.599 411.451 151.943 411.159 151.391C410.868 150.828 410.425 150.396 409.831 150.094C409.237 149.792 408.487 149.641 407.581 149.641H403.612V169H399.316V146.25ZM412.159 169L406.894 158.812L411.441 158.797L416.769 168.781V169H412.159ZM434.578 165.625V169H422.484V165.625H434.578ZM423.796 146.25V169H419.499V146.25H423.796ZM432.999 155.641V158.938H422.484V155.641H432.999ZM434.531 146.25V149.641H422.484V146.25H434.531ZM446.449 149.703L439.964 169H435.418L443.918 146.25H446.824L446.449 149.703ZM451.871 169L445.355 149.703L444.964 146.25H447.886L456.433 169H451.871ZM451.574 160.547V163.938H439.371V160.547H451.574ZM473.054 165.625V169H461.617V165.625H473.054ZM462.914 146.25V169H458.617V146.25H462.914ZM490.375 169H485.469L485.5 165.625H490.375C491.698 165.625 492.807 165.333 493.703 164.75C494.599 164.156 495.276 163.307 495.734 162.203C496.193 161.089 496.422 159.755 496.422 158.203V157.031C496.422 155.833 496.292 154.776 496.031 153.859C495.771 152.943 495.385 152.172 494.875 151.547C494.375 150.922 493.755 150.448 493.016 150.125C492.276 149.802 491.427 149.641 490.469 149.641H485.375V146.25H490.469C491.99 146.25 493.375 146.505 494.625 147.016C495.885 147.526 496.974 148.26 497.891 149.219C498.818 150.167 499.526 151.302 500.016 152.625C500.516 153.948 500.766 155.427 500.766 157.062V158.203C500.766 159.828 500.516 161.307 500.016 162.641C499.526 163.964 498.818 165.099 497.891 166.047C496.974 166.995 495.88 167.724 494.609 168.234C493.339 168.745 491.927 169 490.375 169ZM487.875 146.25V169H483.578V146.25H487.875ZM522.684 157.047V158.219C522.684 159.938 522.455 161.484 521.996 162.859C521.538 164.224 520.887 165.385 520.043 166.344C519.199 167.302 518.194 168.036 517.027 168.547C515.861 169.057 514.564 169.312 513.137 169.312C511.731 169.312 510.439 169.057 509.262 168.547C508.095 168.036 507.085 167.302 506.231 166.344C505.376 165.385 504.715 164.224 504.246 162.859C503.777 161.484 503.543 159.938 503.543 158.219V157.047C503.543 155.318 503.777 153.771 504.246 152.406C504.715 151.042 505.371 149.88 506.215 148.922C507.059 147.953 508.064 147.214 509.231 146.703C510.408 146.193 511.699 145.938 513.106 145.938C514.533 145.938 515.83 146.193 516.996 146.703C518.163 147.214 519.168 147.953 520.012 148.922C520.866 149.88 521.522 151.042 521.981 152.406C522.449 153.771 522.684 155.318 522.684 157.047ZM518.34 158.219V157.016C518.34 155.776 518.225 154.688 517.996 153.75C517.767 152.802 517.429 152.005 516.981 151.359C516.533 150.714 515.981 150.229 515.324 149.906C514.668 149.573 513.929 149.406 513.106 149.406C512.272 149.406 511.533 149.573 510.887 149.906C510.251 150.229 509.71 150.714 509.262 151.359C508.814 152.005 508.47 152.802 508.231 153.75C508.001 154.688 507.887 155.776 507.887 157.016V158.219C507.887 159.448 508.001 160.536 508.231 161.484C508.47 162.432 508.814 163.234 509.262 163.891C509.72 164.536 510.272 165.026 510.918 165.359C511.564 165.693 512.304 165.859 513.137 165.859C513.97 165.859 514.71 165.693 515.356 165.359C516.001 165.026 516.543 164.536 516.981 163.891C517.429 163.234 517.767 162.432 517.996 161.484C518.225 160.536 518.34 159.448 518.34 158.219ZM539.477 161.516H543.774C543.659 163.036 543.237 164.385 542.508 165.562C541.779 166.729 540.763 167.646 539.461 168.312C538.159 168.979 536.581 169.312 534.727 169.312C533.3 169.312 532.013 169.062 530.867 168.562C529.732 168.052 528.758 167.328 527.946 166.391C527.144 165.443 526.529 164.307 526.102 162.984C525.675 161.651 525.461 160.156 525.461 158.5V156.766C525.461 155.109 525.68 153.615 526.117 152.281C526.555 150.948 527.18 149.812 527.992 148.875C528.815 147.927 529.8 147.198 530.946 146.688C532.102 146.177 533.394 145.922 534.821 145.922C536.675 145.922 538.242 146.266 539.524 146.953C540.805 147.63 541.8 148.562 542.508 149.75C543.216 150.938 543.644 152.302 543.789 153.844H539.492C539.409 152.885 539.201 152.073 538.867 151.406C538.545 150.74 538.055 150.234 537.399 149.891C536.753 149.536 535.894 149.359 534.821 149.359C533.987 149.359 533.253 149.516 532.617 149.828C531.992 150.141 531.472 150.609 531.055 151.234C530.638 151.849 530.326 152.62 530.117 153.547C529.909 154.464 529.805 155.526 529.805 156.734V158.5C529.805 159.656 529.899 160.693 530.086 161.609C530.274 162.526 530.565 163.302 530.961 163.938C531.357 164.573 531.867 165.057 532.492 165.391C533.117 165.724 533.862 165.891 534.727 165.891C535.779 165.891 536.633 165.724 537.289 165.391C537.956 165.057 538.461 164.568 538.805 163.922C539.159 163.276 539.383 162.474 539.477 161.516ZM558.848 163.094C558.848 162.656 558.78 162.266 558.645 161.922C558.52 161.568 558.286 161.25 557.942 160.969C557.609 160.677 557.135 160.396 556.52 160.125C555.916 159.844 555.135 159.552 554.176 159.25C553.114 158.917 552.124 158.542 551.207 158.125C550.291 157.708 549.484 157.224 548.786 156.672C548.098 156.12 547.562 155.484 547.176 154.766C546.791 154.036 546.598 153.193 546.598 152.234C546.598 151.297 546.796 150.443 547.192 149.672C547.598 148.901 548.171 148.24 548.911 147.688C549.65 147.125 550.52 146.693 551.52 146.391C552.53 146.089 553.645 145.938 554.864 145.938C556.551 145.938 558.01 146.245 559.239 146.859C560.478 147.474 561.437 148.307 562.114 149.359C562.791 150.411 563.129 151.594 563.129 152.906H558.848C558.848 152.198 558.697 151.573 558.395 151.031C558.103 150.49 557.655 150.062 557.051 149.75C556.457 149.438 555.707 149.281 554.801 149.281C553.926 149.281 553.197 149.411 552.614 149.672C552.041 149.932 551.609 150.286 551.317 150.734C551.036 151.182 550.895 151.682 550.895 152.234C550.895 152.651 550.994 153.026 551.192 153.359C551.39 153.682 551.687 153.99 552.082 154.281C552.478 154.562 552.968 154.828 553.551 155.078C554.145 155.318 554.832 155.557 555.614 155.797C556.864 156.172 557.957 156.589 558.895 157.047C559.843 157.505 560.629 158.026 561.254 158.609C561.89 159.193 562.364 159.849 562.676 160.578C562.999 161.307 563.161 162.135 563.161 163.062C563.161 164.042 562.968 164.917 562.582 165.688C562.197 166.458 561.645 167.115 560.926 167.656C560.207 168.198 559.343 168.609 558.332 168.891C557.332 169.172 556.213 169.312 554.973 169.312C553.869 169.312 552.775 169.167 551.692 168.875C550.619 168.573 549.645 168.125 548.77 167.531C547.895 166.927 547.197 166.167 546.676 165.25C546.155 164.323 545.895 163.24 545.895 162H550.207C550.207 162.719 550.322 163.333 550.551 163.844C550.791 164.344 551.124 164.755 551.551 165.078C551.989 165.391 552.499 165.62 553.082 165.766C553.666 165.911 554.296 165.984 554.973 165.984C555.848 165.984 556.567 165.865 557.129 165.625C557.702 165.375 558.129 165.031 558.411 164.594C558.702 164.156 558.848 163.656 558.848 163.094Z" fill="#8E8E8E"/>
<path d="M377.636 61.25V84H373.355V61.25H377.636ZM384.699 61.25V64.6406H366.371V61.25H384.699ZM387.398 61.25H395.664C397.393 61.25 398.877 61.5104 400.117 62.0312C401.356 62.5521 402.31 63.3229 402.976 64.3438C403.643 65.3646 403.976 66.6198 403.976 68.1094C403.976 69.2865 403.768 70.3073 403.351 71.1719C402.935 72.0365 402.346 72.7604 401.586 73.3438C400.836 73.9271 399.95 74.3854 398.929 74.7188L397.586 75.4062H390.289L390.258 72.0156H395.711C396.596 72.0156 397.33 71.8594 397.914 71.5469C398.497 71.2344 398.935 70.8021 399.226 70.25C399.528 69.6979 399.679 69.0677 399.679 68.3594C399.679 67.599 399.534 66.9427 399.242 66.3906C398.95 65.8281 398.508 65.3958 397.914 65.0938C397.32 64.7917 396.57 64.6406 395.664 64.6406H391.695V84H387.398V61.25ZM400.242 84L394.976 73.8125L399.523 73.7969L404.851 83.7812V84H400.242ZM412.16 61.25V84H407.863V61.25H412.16ZM425.969 64.7031L419.484 84H414.938L423.438 61.25H426.344L425.969 64.7031ZM431.391 84L424.875 64.7031L424.484 61.25H427.406L435.953 84H431.391ZM431.094 75.5469V78.9375H418.891V75.5469H431.094ZM452.574 80.625V84H441.137V80.625H452.574ZM442.434 61.25V84H438.137V61.25H442.434ZM471.098 79.5469L476.77 61.25H481.536L473.504 84H470.333L471.098 79.5469ZM465.864 61.25L471.504 79.5469L472.317 84H469.114L461.114 61.25H465.864ZM498.798 80.625V84H486.704V80.625H498.798ZM488.016 61.25V84H483.719V61.25H488.016ZM497.219 70.6406V73.9375H486.704V70.6406H497.219ZM498.751 61.25V64.6406H486.704V61.25H498.751ZM501.622 61.25H509.888C511.617 61.25 513.101 61.5104 514.341 62.0312C515.58 62.5521 516.533 63.3229 517.2 64.3438C517.867 65.3646 518.2 66.6198 518.2 68.1094C518.2 69.2865 517.992 70.3073 517.575 71.1719C517.158 72.0365 516.57 72.7604 515.809 73.3438C515.059 73.9271 514.174 74.3854 513.153 74.7188L511.809 75.4062H504.513L504.481 72.0156H509.934C510.82 72.0156 511.554 71.8594 512.138 71.5469C512.721 71.2344 513.158 70.8021 513.45 70.25C513.752 69.6979 513.903 69.0677 513.903 68.3594C513.903 67.599 513.757 66.9427 513.466 66.3906C513.174 65.8281 512.731 65.3958 512.138 65.0938C511.544 64.7917 510.794 64.6406 509.888 64.6406H505.919V84H501.622V61.25ZM514.466 84L509.2 73.8125L513.747 73.7969L519.075 83.7812V84H514.466ZM533.712 78.0938C533.712 77.6562 533.644 77.2656 533.509 76.9219C533.384 76.5677 533.149 76.25 532.806 75.9688C532.472 75.6771 531.998 75.3958 531.384 75.125C530.78 74.8438 529.998 74.5521 529.04 74.25C527.978 73.9167 526.988 73.5417 526.071 73.125C525.155 72.7083 524.347 72.224 523.649 71.6719C522.962 71.1198 522.425 70.4844 522.04 69.7656C521.655 69.0365 521.462 68.1927 521.462 67.2344C521.462 66.2969 521.66 65.4427 522.056 64.6719C522.462 63.901 523.035 63.2396 523.774 62.6875C524.514 62.125 525.384 61.6927 526.384 61.3906C527.394 61.0885 528.509 60.9375 529.728 60.9375C531.415 60.9375 532.873 61.2448 534.103 61.8594C535.342 62.474 536.3 63.3073 536.978 64.3594C537.655 65.4115 537.993 66.5938 537.993 67.9062H533.712C533.712 67.1979 533.561 66.5729 533.259 66.0312C532.967 65.4896 532.519 65.0625 531.915 64.75C531.321 64.4375 530.571 64.2812 529.665 64.2812C528.79 64.2812 528.061 64.4115 527.478 64.6719C526.905 64.9323 526.472 65.2865 526.181 65.7344C525.899 66.1823 525.759 66.6823 525.759 67.2344C525.759 67.651 525.858 68.026 526.056 68.3594C526.254 68.6823 526.55 68.9896 526.946 69.2812C527.342 69.5625 527.832 69.8281 528.415 70.0781C529.009 70.3177 529.696 70.5573 530.478 70.7969C531.728 71.1719 532.821 71.5885 533.759 72.0469C534.707 72.5052 535.493 73.026 536.118 73.6094C536.754 74.1927 537.228 74.849 537.54 75.5781C537.863 76.3073 538.024 77.1354 538.024 78.0625C538.024 79.0417 537.832 79.9167 537.446 80.6875C537.061 81.4583 536.509 82.1146 535.79 82.6562C535.071 83.1979 534.207 83.6094 533.196 83.8906C532.196 84.1719 531.076 84.3125 529.837 84.3125C528.733 84.3125 527.639 84.1667 526.556 83.875C525.483 83.5729 524.509 83.125 523.634 82.5312C522.759 81.9271 522.061 81.1667 521.54 80.25C521.019 79.3229 520.759 78.2396 520.759 77H525.071C525.071 77.7188 525.186 78.3333 525.415 78.8438C525.655 79.3438 525.988 79.7552 526.415 80.0781C526.853 80.3906 527.363 80.6198 527.946 80.7656C528.53 80.9115 529.16 80.9844 529.837 80.9844C530.712 80.9844 531.431 80.8646 531.993 80.625C532.566 80.375 532.993 80.0312 533.274 79.5938C533.566 79.1562 533.712 78.6562 533.712 78.0938ZM545.755 61.25V84H541.458V61.25H545.755ZM568.658 72.0469V73.2188C568.658 74.9375 568.428 76.4844 567.97 77.8594C567.512 79.224 566.861 80.3854 566.017 81.3438C565.173 82.3021 564.168 83.0365 563.001 83.5469C561.835 84.0573 560.538 84.3125 559.111 84.3125C557.704 84.3125 556.413 84.0573 555.236 83.5469C554.069 83.0365 553.059 82.3021 552.204 81.3438C551.35 80.3854 550.689 79.224 550.22 77.8594C549.751 76.4844 549.517 74.9375 549.517 73.2188V72.0469C549.517 70.3177 549.751 68.7708 550.22 67.4062C550.689 66.0417 551.345 64.8802 552.189 63.9219C553.033 62.9531 554.038 62.2135 555.204 61.7031C556.381 61.1927 557.673 60.9375 559.079 60.9375C560.506 60.9375 561.803 61.1927 562.97 61.7031C564.137 62.2135 565.142 62.9531 565.986 63.9219C566.84 64.8802 567.496 66.0417 567.954 67.4062C568.423 68.7708 568.658 70.3177 568.658 72.0469ZM564.314 73.2188V72.0156C564.314 70.776 564.199 69.6875 563.97 68.75C563.741 67.8021 563.402 67.0052 562.954 66.3594C562.506 65.7135 561.954 65.2292 561.298 64.9062C560.642 64.5729 559.902 64.4062 559.079 64.4062C558.246 64.4062 557.506 64.5729 556.861 64.9062C556.225 65.2292 555.684 65.7135 555.236 66.3594C554.788 67.0052 554.444 67.8021 554.204 68.75C553.975 69.6875 553.861 70.776 553.861 72.0156V73.2188C553.861 74.4479 553.975 75.5365 554.204 76.4844C554.444 77.4323 554.788 78.2344 555.236 78.8906C555.694 79.5365 556.246 80.026 556.892 80.3594C557.538 80.6927 558.277 80.8594 559.111 80.8594C559.944 80.8594 560.684 80.6927 561.329 80.3594C561.975 80.026 562.517 79.5365 562.954 78.8906C563.402 78.2344 563.741 77.4323 563.97 76.4844C564.199 75.5365 564.314 74.4479 564.314 73.2188ZM590.419 61.25V84H586.107L576.435 68.2188V84H572.138V61.25H576.435L586.138 77.0469V61.25H590.419ZM620.865 72.0469V73.2188C620.865 74.9375 620.636 76.4844 620.177 77.8594C619.719 79.224 619.068 80.3854 618.224 81.3438C617.381 82.3021 616.375 83.0365 615.209 83.5469C614.042 84.0573 612.745 84.3125 611.318 84.3125C609.912 84.3125 608.62 84.0573 607.443 83.5469C606.276 83.0365 605.266 82.3021 604.412 81.3438C603.558 80.3854 602.896 79.224 602.427 77.8594C601.959 76.4844 601.724 74.9375 601.724 73.2188V72.0469C601.724 70.3177 601.959 68.7708 602.427 67.4062C602.896 66.0417 603.552 64.8802 604.396 63.9219C605.24 62.9531 606.245 62.2135 607.412 61.7031C608.589 61.1927 609.881 60.9375 611.287 60.9375C612.714 60.9375 614.011 61.1927 615.177 61.7031C616.344 62.2135 617.349 62.9531 618.193 63.9219C619.047 64.8802 619.704 66.0417 620.162 67.4062C620.631 68.7708 620.865 70.3177 620.865 72.0469ZM616.521 73.2188V72.0156C616.521 70.776 616.407 69.6875 616.177 68.75C615.948 67.8021 615.61 67.0052 615.162 66.3594C614.714 65.7135 614.162 65.2292 613.506 64.9062C612.849 64.5729 612.11 64.4062 611.287 64.4062C610.454 64.4062 609.714 64.5729 609.068 64.9062C608.433 65.2292 607.891 65.7135 607.443 66.3594C606.995 67.0052 606.651 67.8021 606.412 68.75C606.183 69.6875 606.068 70.776 606.068 72.0156V73.2188C606.068 74.4479 606.183 75.5365 606.412 76.4844C606.651 77.4323 606.995 78.2344 607.443 78.8906C607.901 79.5365 608.454 80.026 609.099 80.3594C609.745 80.6927 610.485 80.8594 611.318 80.8594C612.151 80.8594 612.891 80.6927 613.537 80.3594C614.183 80.026 614.724 79.5365 615.162 78.8906C615.61 78.2344 615.948 77.4323 616.177 76.4844C616.407 75.5365 616.521 74.4479 616.521 73.2188ZM628.643 61.25V84H624.346V61.25H628.643ZM637.814 71.0781V74.4688H627.518V71.0781H637.814ZM639.018 61.25V64.6406H627.518V61.25H639.018ZM661.494 78.0938C661.494 77.6562 661.427 77.2656 661.291 76.9219C661.166 76.5677 660.932 76.25 660.588 75.9688C660.255 75.6771 659.781 75.3958 659.166 75.125C658.562 74.8438 657.781 74.5521 656.823 74.25C655.76 73.9167 654.77 73.5417 653.854 73.125C652.937 72.7083 652.13 72.224 651.432 71.6719C650.744 71.1198 650.208 70.4844 649.823 69.7656C649.437 69.0365 649.244 68.1927 649.244 67.2344C649.244 66.2969 649.442 65.4427 649.838 64.6719C650.244 63.901 650.817 63.2396 651.557 62.6875C652.296 62.125 653.166 61.6927 654.166 61.3906C655.177 61.0885 656.291 60.9375 657.51 60.9375C659.198 60.9375 660.656 61.2448 661.885 61.8594C663.125 62.474 664.083 63.3073 664.76 64.3594C665.437 65.4115 665.776 66.5938 665.776 67.9062H661.494C661.494 67.1979 661.343 66.5729 661.041 66.0312C660.75 65.4896 660.302 65.0625 659.698 64.75C659.104 64.4375 658.354 64.2812 657.448 64.2812C656.573 64.2812 655.843 64.4115 655.26 64.6719C654.687 64.9323 654.255 65.2865 653.963 65.7344C653.682 66.1823 653.541 66.6823 653.541 67.2344C653.541 67.651 653.64 68.026 653.838 68.3594C654.036 68.6823 654.333 68.9896 654.729 69.2812C655.125 69.5625 655.614 69.8281 656.198 70.0781C656.791 70.3177 657.479 70.5573 658.26 70.7969C659.51 71.1719 660.604 71.5885 661.541 72.0469C662.489 72.5052 663.276 73.026 663.901 73.6094C664.536 74.1927 665.01 74.849 665.323 75.5781C665.645 76.3073 665.807 77.1354 665.807 78.0625C665.807 79.0417 665.614 79.9167 665.229 80.6875C664.843 81.4583 664.291 82.1146 663.573 82.6562C662.854 83.1979 661.989 83.6094 660.979 83.8906C659.979 84.1719 658.859 84.3125 657.619 84.3125C656.515 84.3125 655.421 84.1667 654.338 83.875C653.265 83.5729 652.291 83.125 651.416 82.5312C650.541 81.9271 649.843 81.1667 649.323 80.25C648.802 79.3229 648.541 78.2396 648.541 77H652.854C652.854 77.7188 652.968 78.3333 653.198 78.8438C653.437 79.3438 653.77 79.7552 654.198 80.0781C654.635 80.3906 655.145 80.6198 655.729 80.7656C656.312 80.9115 656.942 80.9844 657.619 80.9844C658.494 80.9844 659.213 80.8646 659.776 80.625C660.349 80.375 660.776 80.0312 661.057 79.5938C661.349 79.1562 661.494 78.6562 661.494 78.0938ZM681.616 61.25H685.913V76.3594C685.913 78.099 685.538 79.5625 684.788 80.75C684.038 81.9271 683.017 82.8177 681.725 83.4219C680.433 84.0156 678.965 84.3125 677.319 84.3125C675.652 84.3125 674.168 84.0156 672.866 83.4219C671.564 82.8177 670.543 81.9271 669.803 80.75C669.064 79.5625 668.694 78.099 668.694 76.3594V61.25H672.991V76.3594C672.991 77.4219 673.168 78.2917 673.522 78.9688C673.876 79.6354 674.376 80.1302 675.022 80.4531C675.668 80.776 676.433 80.9375 677.319 80.9375C678.215 80.9375 678.98 80.776 679.616 80.4531C680.261 80.1302 680.756 79.6354 681.1 78.9688C681.444 78.2917 681.616 77.4219 681.616 76.3594V61.25ZM689.831 61.25H698.096C699.825 61.25 701.31 61.5104 702.549 62.0312C703.789 62.5521 704.742 63.3229 705.409 64.3438C706.075 65.3646 706.409 66.6198 706.409 68.1094C706.409 69.2865 706.2 70.3073 705.784 71.1719C705.367 72.0365 704.779 72.7604 704.018 73.3438C703.268 73.9271 702.383 74.3854 701.362 74.7188L700.018 75.4062H692.721L692.69 72.0156H698.143C699.029 72.0156 699.763 71.8594 700.346 71.5469C700.93 71.2344 701.367 70.8021 701.659 70.25C701.961 69.6979 702.112 69.0677 702.112 68.3594C702.112 67.599 701.966 66.9427 701.674 66.3906C701.383 65.8281 700.94 65.3958 700.346 65.0938C699.753 64.7917 699.003 64.6406 698.096 64.6406H694.128V84H689.831V61.25ZM702.674 84L697.409 73.8125L701.956 73.7969L707.284 83.7812V84H702.674ZM710.014 61.25H718.28C720.009 61.25 721.494 61.5104 722.733 62.0312C723.973 62.5521 724.926 63.3229 725.592 64.3438C726.259 65.3646 726.592 66.6198 726.592 68.1094C726.592 69.2865 726.384 70.3073 725.967 71.1719C725.551 72.0365 724.962 72.7604 724.202 73.3438C723.452 73.9271 722.566 74.3854 721.546 74.7188L720.202 75.4062H712.905L712.874 72.0156H718.327C719.212 72.0156 719.947 71.8594 720.53 71.5469C721.113 71.2344 721.551 70.8021 721.842 70.25C722.145 69.6979 722.296 69.0677 722.296 68.3594C722.296 67.599 722.15 66.9427 721.858 66.3906C721.566 65.8281 721.124 65.3958 720.53 65.0938C719.936 64.7917 719.186 64.6406 718.28 64.6406H714.311V84H710.014V61.25ZM722.858 84L717.592 73.8125L722.139 73.7969L727.467 83.7812V84H722.858ZM745.276 80.625V84H733.183V80.625H745.276ZM734.495 61.25V84H730.198V61.25H734.495ZM743.698 70.6406V73.9375H733.183V70.6406H743.698ZM745.229 61.25V64.6406H733.183V61.25H745.229ZM757.148 64.7031L750.663 84H746.116L754.616 61.25H757.523L757.148 64.7031ZM762.569 84L756.054 64.7031L755.663 61.25H758.585L767.132 84H762.569ZM762.273 75.5469V78.9375H750.069V75.5469H762.273ZM783.753 80.625V84H772.316V80.625H783.753ZM773.613 61.25V84H769.316V61.25H773.613ZM801.074 84H796.167L796.199 80.625H801.074C802.397 80.625 803.506 80.3333 804.402 79.75C805.298 79.1562 805.975 78.3073 806.433 77.2031C806.891 76.0885 807.121 74.7552 807.121 73.2031V72.0312C807.121 70.8333 806.99 69.776 806.73 68.8594C806.47 67.9427 806.084 67.1719 805.574 66.5469C805.074 65.9219 804.454 65.4479 803.714 65.125C802.975 64.8021 802.126 64.6406 801.167 64.6406H796.074V61.25H801.167C802.688 61.25 804.074 61.5052 805.324 62.0156C806.584 62.526 807.673 63.2604 808.589 64.2188C809.516 65.1667 810.225 66.3021 810.714 67.625C811.214 68.9479 811.464 70.4271 811.464 72.0625V73.2031C811.464 74.8281 811.214 76.3073 810.714 77.6406C810.225 78.9635 809.516 80.099 808.589 81.0469C807.673 81.9948 806.579 82.724 805.308 83.2344C804.037 83.7448 802.626 84 801.074 84ZM798.574 61.25V84H794.277V61.25H798.574ZM833.383 72.0469V73.2188C833.383 74.9375 833.153 76.4844 832.695 77.8594C832.237 79.224 831.586 80.3854 830.742 81.3438C829.898 82.3021 828.893 83.0365 827.726 83.5469C826.56 84.0573 825.263 84.3125 823.836 84.3125C822.429 84.3125 821.138 84.0573 819.961 83.5469C818.794 83.0365 817.784 82.3021 816.929 81.3438C816.075 80.3854 815.414 79.224 814.945 77.8594C814.476 76.4844 814.242 74.9375 814.242 73.2188V72.0469C814.242 70.3177 814.476 68.7708 814.945 67.4062C815.414 66.0417 816.07 64.8802 816.914 63.9219C817.758 62.9531 818.763 62.2135 819.929 61.7031C821.106 61.1927 822.398 60.9375 823.804 60.9375C825.231 60.9375 826.528 61.1927 827.695 61.7031C828.862 62.2135 829.867 62.9531 830.711 63.9219C831.565 64.8802 832.221 66.0417 832.679 67.4062C833.148 68.7708 833.383 70.3177 833.383 72.0469ZM829.039 73.2188V72.0156C829.039 70.776 828.924 69.6875 828.695 68.75C828.466 67.8021 828.127 67.0052 827.679 66.3594C827.231 65.7135 826.679 65.2292 826.023 64.9062C825.367 64.5729 824.627 64.4062 823.804 64.4062C822.971 64.4062 822.231 64.5729 821.586 64.9062C820.95 65.2292 820.409 65.7135 819.961 66.3594C819.513 67.0052 819.169 67.8021 818.929 68.75C818.7 69.6875 818.586 70.776 818.586 72.0156V73.2188C818.586 74.4479 818.7 75.5365 818.929 76.4844C819.169 77.4323 819.513 78.2344 819.961 78.8906C820.419 79.5365 820.971 80.026 821.617 80.3594C822.263 80.6927 823.002 80.8594 823.836 80.8594C824.669 80.8594 825.409 80.6927 826.054 80.3594C826.7 80.026 827.242 79.5365 827.679 78.8906C828.127 78.2344 828.466 77.4323 828.695 76.4844C828.924 75.5365 829.039 74.4479 829.039 73.2188ZM850.176 76.5156H854.473C854.358 78.0365 853.936 79.3854 853.207 80.5625C852.478 81.7292 851.462 82.6458 850.16 83.3125C848.858 83.9792 847.28 84.3125 845.426 84.3125C843.999 84.3125 842.712 84.0625 841.566 83.5625C840.431 83.0521 839.457 82.3281 838.644 81.3906C837.842 80.4427 837.228 79.3073 836.801 77.9844C836.374 76.651 836.16 75.1562 836.16 73.5V71.7656C836.16 70.1094 836.379 68.6146 836.816 67.2812C837.254 65.9479 837.879 64.8125 838.691 63.875C839.514 62.9271 840.499 62.1979 841.644 61.6875C842.801 61.1771 844.092 60.9219 845.519 60.9219C847.374 60.9219 848.941 61.2656 850.223 61.9531C851.504 62.6302 852.499 63.5625 853.207 64.75C853.915 65.9375 854.342 67.3021 854.488 68.8438H850.191C850.108 67.8854 849.9 67.0729 849.566 66.4062C849.243 65.7396 848.754 65.2344 848.098 64.8906C847.452 64.5365 846.592 64.3594 845.519 64.3594C844.686 64.3594 843.952 64.5156 843.316 64.8281C842.691 65.1406 842.17 65.6094 841.754 66.2344C841.337 66.849 841.025 67.6198 840.816 68.5469C840.608 69.4635 840.504 70.526 840.504 71.7344V73.5C840.504 74.6562 840.598 75.6927 840.785 76.6094C840.973 77.526 841.264 78.3021 841.66 78.9375C842.056 79.5729 842.566 80.0573 843.191 80.3906C843.816 80.724 844.561 80.8906 845.426 80.8906C846.478 80.8906 847.332 80.724 847.988 80.3906C848.655 80.0573 849.16 79.5677 849.504 78.9219C849.858 78.276 850.082 77.474 850.176 76.5156ZM869.547 78.0938C869.547 77.6562 869.479 77.2656 869.344 76.9219C869.219 76.5677 868.984 76.25 868.641 75.9688C868.307 75.6771 867.833 75.3958 867.219 75.125C866.615 74.8438 865.833 74.5521 864.875 74.25C863.812 73.9167 862.823 73.5417 861.906 73.125C860.99 72.7083 860.182 72.224 859.484 71.6719C858.797 71.1198 858.26 70.4844 857.875 69.7656C857.49 69.0365 857.297 68.1927 857.297 67.2344C857.297 66.2969 857.495 65.4427 857.891 64.6719C858.297 63.901 858.87 63.2396 859.609 62.6875C860.349 62.125 861.219 61.6927 862.219 61.3906C863.229 61.0885 864.344 60.9375 865.562 60.9375C867.25 60.9375 868.708 61.2448 869.938 61.8594C871.177 62.474 872.135 63.3073 872.812 64.3594C873.49 65.4115 873.828 66.5938 873.828 67.9062H869.547C869.547 67.1979 869.396 66.5729 869.094 66.0312C868.802 65.4896 868.354 65.0625 867.75 64.75C867.156 64.4375 866.406 64.2812 865.5 64.2812C864.625 64.2812 863.896 64.4115 863.312 64.6719C862.74 64.9323 862.307 65.2865 862.016 65.7344C861.734 66.1823 861.594 66.6823 861.594 67.2344C861.594 67.651 861.693 68.026 861.891 68.3594C862.089 68.6823 862.385 68.9896 862.781 69.2812C863.177 69.5625 863.667 69.8281 864.25 70.0781C864.844 70.3177 865.531 70.5573 866.312 70.7969C867.562 71.1719 868.656 71.5885 869.594 72.0469C870.542 72.5052 871.328 73.026 871.953 73.6094C872.589 74.1927 873.062 74.849 873.375 75.5781C873.698 76.3073 873.859 77.1354 873.859 78.0625C873.859 79.0417 873.667 79.9167 873.281 80.6875C872.896 81.4583 872.344 82.1146 871.625 82.6562C870.906 83.1979 870.042 83.6094 869.031 83.8906C868.031 84.1719 866.911 84.3125 865.672 84.3125C864.568 84.3125 863.474 84.1667 862.391 83.875C861.318 83.5729 860.344 83.125 859.469 82.5312C858.594 81.9271 857.896 81.1667 857.375 80.25C856.854 79.3229 856.594 78.2396 856.594 77H860.906C860.906 77.7188 861.021 78.3333 861.25 78.8438C861.49 79.3438 861.823 79.7552 862.25 80.0781C862.688 80.3906 863.198 80.6198 863.781 80.7656C864.365 80.9115 864.995 80.9844 865.672 80.9844C866.547 80.9844 867.266 80.8646 867.828 80.625C868.401 80.375 868.828 80.0312 869.109 79.5938C869.401 79.1562 869.547 78.6562 869.547 78.0938Z" fill="#8E8E8E"/>
<path d="M-273.364 61.25V84H-277.645V61.25H-273.364ZM-266.301 61.25V64.6406H-284.629V61.25H-266.301ZM-263.602 61.25H-255.336C-253.607 61.25 -252.123 61.5104 -250.883 62.0312C-249.644 62.5521 -248.69 63.3229 -248.024 64.3438C-247.357 65.3646 -247.024 66.6198 -247.024 68.1094C-247.024 69.2865 -247.232 70.3073 -247.649 71.1719C-248.065 72.0365 -248.654 72.7604 -249.414 73.3438C-250.164 73.9271 -251.05 74.3854 -252.071 74.7188L-253.414 75.4062H-260.711L-260.742 72.0156H-255.289C-254.404 72.0156 -253.67 71.8594 -253.086 71.5469C-252.503 71.2344 -252.065 70.8021 -251.774 70.25C-251.472 69.6979 -251.321 69.0677 -251.321 68.3594C-251.321 67.599 -251.466 66.9427 -251.758 66.3906C-252.05 65.8281 -252.492 65.3958 -253.086 65.0938C-253.68 64.7917 -254.43 64.6406 -255.336 64.6406H-259.305V84H-263.602V61.25ZM-250.758 84L-256.024 73.8125L-251.477 73.7969L-246.149 83.7812V84H-250.758ZM-238.84 61.25V84H-243.137V61.25H-238.84ZM-225.031 64.7031L-231.516 84H-236.062L-227.562 61.25H-224.656L-225.031 64.7031ZM-219.609 84L-226.125 64.7031L-226.516 61.25H-223.594L-215.047 84H-219.609ZM-219.906 75.5469V78.9375H-232.109V75.5469H-219.906ZM-198.426 80.625V84H-209.863V80.625H-198.426ZM-208.566 61.25V84H-212.863V61.25H-208.566ZM-179.902 79.5469L-174.23 61.25H-169.464L-177.496 84H-180.667L-179.902 79.5469ZM-185.136 61.25L-179.496 79.5469L-178.683 84H-181.886L-189.886 61.25H-185.136ZM-152.202 80.625V84H-164.296V80.625H-152.202ZM-162.984 61.25V84H-167.281V61.25H-162.984ZM-153.781 70.6406V73.9375H-164.296V70.6406H-153.781ZM-152.249 61.25V64.6406H-164.296V61.25H-152.249ZM-149.378 61.25H-141.112C-139.383 61.25 -137.899 61.5104 -136.659 62.0312C-135.42 62.5521 -134.467 63.3229 -133.8 64.3438C-133.133 65.3646 -132.8 66.6198 -132.8 68.1094C-132.8 69.2865 -133.008 70.3073 -133.425 71.1719C-133.842 72.0365 -134.43 72.7604 -135.191 73.3438C-135.941 73.9271 -136.826 74.3854 -137.847 74.7188L-139.191 75.4062H-146.487L-146.519 72.0156H-141.066C-140.18 72.0156 -139.446 71.8594 -138.862 71.5469C-138.279 71.2344 -137.842 70.8021 -137.55 70.25C-137.248 69.6979 -137.097 69.0677 -137.097 68.3594C-137.097 67.599 -137.243 66.9427 -137.534 66.3906C-137.826 65.8281 -138.269 65.3958 -138.862 65.0938C-139.456 64.7917 -140.206 64.6406 -141.112 64.6406H-145.081V84H-149.378V61.25ZM-136.534 84L-141.8 73.8125L-137.253 73.7969L-131.925 83.7812V84H-136.534ZM-117.288 78.0938C-117.288 77.6562 -117.356 77.2656 -117.491 76.9219C-117.616 76.5677 -117.851 76.25 -118.194 75.9688C-118.528 75.6771 -119.002 75.3958 -119.616 75.125C-120.22 74.8438 -121.002 74.5521 -121.96 74.25C-123.022 73.9167 -124.012 73.5417 -124.929 73.125C-125.845 72.7083 -126.653 72.224 -127.351 71.6719C-128.038 71.1198 -128.575 70.4844 -128.96 69.7656C-129.345 69.0365 -129.538 68.1927 -129.538 67.2344C-129.538 66.2969 -129.34 65.4427 -128.944 64.6719C-128.538 63.901 -127.965 63.2396 -127.226 62.6875C-126.486 62.125 -125.616 61.6927 -124.616 61.3906C-123.606 61.0885 -122.491 60.9375 -121.272 60.9375C-119.585 60.9375 -118.127 61.2448 -116.897 61.8594C-115.658 62.474 -114.7 63.3073 -114.022 64.3594C-113.345 65.4115 -113.007 66.5938 -113.007 67.9062H-117.288C-117.288 67.1979 -117.439 66.5729 -117.741 66.0312C-118.033 65.4896 -118.481 65.0625 -119.085 64.75C-119.679 64.4375 -120.429 64.2812 -121.335 64.2812C-122.21 64.2812 -122.939 64.4115 -123.522 64.6719C-124.095 64.9323 -124.528 65.2865 -124.819 65.7344C-125.101 66.1823 -125.241 66.6823 -125.241 67.2344C-125.241 67.651 -125.142 68.026 -124.944 68.3594C-124.746 68.6823 -124.45 68.9896 -124.054 69.2812C-123.658 69.5625 -123.168 69.8281 -122.585 70.0781C-121.991 70.3177 -121.304 70.5573 -120.522 70.7969C-119.272 71.1719 -118.179 71.5885 -117.241 72.0469C-116.293 72.5052 -115.507 73.026 -114.882 73.6094C-114.246 74.1927 -113.772 74.849 -113.46 75.5781C-113.137 76.3073 -112.976 77.1354 -112.976 78.0625C-112.976 79.0417 -113.168 79.9167 -113.554 80.6875C-113.939 81.4583 -114.491 82.1146 -115.21 82.6562C-115.929 83.1979 -116.793 83.6094 -117.804 83.8906C-118.804 84.1719 -119.924 84.3125 -121.163 84.3125C-122.267 84.3125 -123.361 84.1667 -124.444 83.875C-125.517 83.5729 -126.491 83.125 -127.366 82.5312C-128.241 81.9271 -128.939 81.1667 -129.46 80.25C-129.981 79.3229 -130.241 78.2396 -130.241 77H-125.929C-125.929 77.7188 -125.814 78.3333 -125.585 78.8438C-125.345 79.3438 -125.012 79.7552 -124.585 80.0781C-124.147 80.3906 -123.637 80.6198 -123.054 80.7656C-122.47 80.9115 -121.84 80.9844 -121.163 80.9844C-120.288 80.9844 -119.569 80.8646 -119.007 80.625C-118.434 80.375 -118.007 80.0312 -117.726 79.5938C-117.434 79.1562 -117.288 78.6562 -117.288 78.0938ZM-105.245 61.25V84H-109.542V61.25H-105.245ZM-82.3425 72.0469V73.2188C-82.3425 74.9375 -82.5716 76.4844 -83.03 77.8594C-83.4883 79.224 -84.1393 80.3854 -84.9831 81.3438C-85.8268 82.3021 -86.8321 83.0365 -87.9987 83.5469C-89.1654 84.0573 -90.4623 84.3125 -91.8893 84.3125C-93.2956 84.3125 -94.5873 84.0573 -95.7643 83.5469C-96.931 83.0365 -97.9414 82.3021 -98.7956 81.3438C-99.6498 80.3854 -100.311 79.224 -100.78 77.8594C-101.249 76.4844 -101.483 74.9375 -101.483 73.2188V72.0469C-101.483 70.3177 -101.249 68.7708 -100.78 67.4062C-100.311 66.0417 -99.655 64.8802 -98.8112 63.9219C-97.9675 62.9531 -96.9623 62.2135 -95.7956 61.7031C-94.6185 61.1927 -93.3268 60.9375 -91.9206 60.9375C-90.4935 60.9375 -89.1966 61.1927 -88.03 61.7031C-86.8633 62.2135 -85.8581 62.9531 -85.0143 63.9219C-84.1602 64.8802 -83.5039 66.0417 -83.0456 67.4062C-82.5768 68.7708 -82.3425 70.3177 -82.3425 72.0469ZM-86.6862 73.2188V72.0156C-86.6862 70.776 -86.8008 69.6875 -87.03 68.75C-87.2591 67.8021 -87.5977 67.0052 -88.0456 66.3594C-88.4935 65.7135 -89.0456 65.2292 -89.7018 64.9062C-90.3581 64.5729 -91.0977 64.4062 -91.9206 64.4062C-92.7539 64.4062 -93.4935 64.5729 -94.1393 64.9062C-94.7748 65.2292 -95.3164 65.7135 -95.7643 66.3594C-96.2123 67.0052 -96.556 67.8021 -96.7956 68.75C-97.0248 69.6875 -97.1393 70.776 -97.1393 72.0156V73.2188C-97.1393 74.4479 -97.0248 75.5365 -96.7956 76.4844C-96.556 77.4323 -96.2123 78.2344 -95.7643 78.8906C-95.306 79.5365 -94.7539 80.026 -94.1081 80.3594C-93.4623 80.6927 -92.7227 80.8594 -91.8893 80.8594C-91.056 80.8594 -90.3164 80.6927 -89.6706 80.3594C-89.0248 80.026 -88.4831 79.5365 -88.0456 78.8906C-87.5977 78.2344 -87.2591 77.4323 -87.03 76.4844C-86.8008 75.5365 -86.6862 74.4479 -86.6862 73.2188ZM-60.5806 61.25V84H-64.8931L-74.565 68.2188V84H-78.8619V61.25H-74.565L-64.8619 77.0469V61.25H-60.5806ZM-30.135 72.0469V73.2188C-30.135 74.9375 -30.3642 76.4844 -30.8225 77.8594C-31.2808 79.224 -31.9319 80.3854 -32.7756 81.3438C-33.6194 82.3021 -34.6246 83.0365 -35.7913 83.5469C-36.9579 84.0573 -38.2548 84.3125 -39.6819 84.3125C-41.0881 84.3125 -42.3798 84.0573 -43.5569 83.5469C-44.7236 83.0365 -45.734 82.3021 -46.5881 81.3438C-47.4423 80.3854 -48.1038 79.224 -48.5725 77.8594C-49.0413 76.4844 -49.2756 74.9375 -49.2756 73.2188V72.0469C-49.2756 70.3177 -49.0413 68.7708 -48.5725 67.4062C-48.1038 66.0417 -47.4475 64.8802 -46.6038 63.9219C-45.76 62.9531 -44.7548 62.2135 -43.5881 61.7031C-42.4111 61.1927 -41.1194 60.9375 -39.7131 60.9375C-38.2861 60.9375 -36.9892 61.1927 -35.8225 61.7031C-34.6558 62.2135 -33.6506 62.9531 -32.8069 63.9219C-31.9527 64.8802 -31.2965 66.0417 -30.8381 67.4062C-30.3694 68.7708 -30.135 70.3177 -30.135 72.0469ZM-34.4788 73.2188V72.0156C-34.4788 70.776 -34.5933 69.6875 -34.8225 68.75C-35.0517 67.8021 -35.3902 67.0052 -35.8381 66.3594C-36.2861 65.7135 -36.8381 65.2292 -37.4944 64.9062C-38.1506 64.5729 -38.8902 64.4062 -39.7131 64.4062C-40.5465 64.4062 -41.2861 64.5729 -41.9319 64.9062C-42.5673 65.2292 -43.109 65.7135 -43.5569 66.3594C-44.0048 67.0052 -44.3486 67.8021 -44.5881 68.75C-44.8173 69.6875 -44.9319 70.776 -44.9319 72.0156V73.2188C-44.9319 74.4479 -44.8173 75.5365 -44.5881 76.4844C-44.3486 77.4323 -44.0048 78.2344 -43.5569 78.8906C-43.0986 79.5365 -42.5465 80.026 -41.9006 80.3594C-41.2548 80.6927 -40.5152 80.8594 -39.6819 80.8594C-38.8486 80.8594 -38.109 80.6927 -37.4631 80.3594C-36.8173 80.026 -36.2756 79.5365 -35.8381 78.8906C-35.3902 78.2344 -35.0517 77.4323 -34.8225 76.4844C-34.5933 75.5365 -34.4788 74.4479 -34.4788 73.2188ZM-22.3575 61.25V84H-26.6544V61.25H-22.3575ZM-13.1856 71.0781V74.4688H-23.4825V71.0781H-13.1856ZM-11.9825 61.25V64.6406H-23.4825V61.25H-11.9825ZM10.4944 78.0938C10.4944 77.6562 10.4267 77.2656 10.2913 76.9219C10.1663 76.5677 9.93188 76.25 9.58813 75.9688C9.2548 75.6771 8.78084 75.3958 8.16626 75.125C7.56209 74.8438 6.78084 74.5521 5.82251 74.25C4.76001 73.9167 3.77043 73.5417 2.85376 73.125C1.93709 72.7083 1.1298 72.224 0.431885 71.6719C-0.255615 71.1198 -0.792074 70.4844 -1.17749 69.7656C-1.56291 69.0365 -1.75562 68.1927 -1.75562 67.2344C-1.75562 66.2969 -1.5577 65.4427 -1.16187 64.6719C-0.755615 63.901 -0.182699 63.2396 0.556885 62.6875C1.29647 62.125 2.16626 61.6927 3.16626 61.3906C4.17668 61.0885 5.29126 60.9375 6.51001 60.9375C8.19751 60.9375 9.65584 61.2448 10.885 61.8594C12.1246 62.474 13.0829 63.3073 13.76 64.3594C14.4371 65.4115 14.7756 66.5938 14.7756 67.9062H10.4944C10.4944 67.1979 10.3433 66.5729 10.0413 66.0312C9.74959 65.4896 9.30168 65.0625 8.69751 64.75C8.10376 64.4375 7.35376 64.2812 6.44751 64.2812C5.57251 64.2812 4.84334 64.4115 4.26001 64.6719C3.68709 64.9323 3.2548 65.2865 2.96313 65.7344C2.68188 66.1823 2.54126 66.6823 2.54126 67.2344C2.54126 67.651 2.64022 68.026 2.83813 68.3594C3.03605 68.6823 3.33293 68.9896 3.72876 69.2812C4.12459 69.5625 4.61418 69.8281 5.19751 70.0781C5.79126 70.3177 6.47876 70.5573 7.26001 70.7969C8.51001 71.1719 9.60376 71.5885 10.5413 72.0469C11.4892 72.5052 12.2756 73.026 12.9006 73.6094C13.5361 74.1927 14.01 74.849 14.3225 75.5781C14.6454 76.3073 14.8069 77.1354 14.8069 78.0625C14.8069 79.0417 14.6142 79.9167 14.2288 80.6875C13.8433 81.4583 13.2913 82.1146 12.5725 82.6562C11.8538 83.1979 10.9892 83.6094 9.97876 83.8906C8.97876 84.1719 7.85897 84.3125 6.61938 84.3125C5.51522 84.3125 4.42147 84.1667 3.33813 83.875C2.26522 83.5729 1.29126 83.125 0.41626 82.5312C-0.45874 81.9271 -1.15666 81.1667 -1.67749 80.25C-2.19832 79.3229 -2.45874 78.2396 -2.45874 77H1.85376C1.85376 77.7188 1.96834 78.3333 2.19751 78.8438C2.43709 79.3438 2.77043 79.7552 3.19751 80.0781C3.63501 80.3906 4.14543 80.6198 4.72876 80.7656C5.31209 80.9115 5.9423 80.9844 6.61938 80.9844C7.49438 80.9844 8.21313 80.8646 8.77563 80.625C9.34855 80.375 9.77563 80.0312 10.0569 79.5938C10.3486 79.1562 10.4944 78.6562 10.4944 78.0938ZM30.6156 61.25H34.9125V76.3594C34.9125 78.099 34.5375 79.5625 33.7875 80.75C33.0375 81.9271 32.0167 82.8177 30.725 83.4219C29.4333 84.0156 27.9646 84.3125 26.3188 84.3125C24.6521 84.3125 23.1677 84.0156 21.8656 83.4219C20.5635 82.8177 19.5427 81.9271 18.8031 80.75C18.0635 79.5625 17.6938 78.099 17.6938 76.3594V61.25H21.9906V76.3594C21.9906 77.4219 22.1677 78.2917 22.5219 78.9688C22.876 79.6354 23.376 80.1302 24.0219 80.4531C24.6677 80.776 25.4333 80.9375 26.3188 80.9375C27.2146 80.9375 27.9802 80.776 28.6156 80.4531C29.2615 80.1302 29.7563 79.6354 30.1 78.9688C30.4438 78.2917 30.6156 77.4219 30.6156 76.3594V61.25ZM38.8306 61.25H47.0963C48.8254 61.25 50.3098 61.5104 51.5494 62.0312C52.789 62.5521 53.7421 63.3229 54.4088 64.3438C55.0754 65.3646 55.4088 66.6198 55.4088 68.1094C55.4088 69.2865 55.2004 70.3073 54.7838 71.1719C54.3671 72.0365 53.7785 72.7604 53.0181 73.3438C52.2681 73.9271 51.3827 74.3854 50.3619 74.7188L49.0181 75.4062H41.7213L41.69 72.0156H47.1431C48.0285 72.0156 48.7629 71.8594 49.3463 71.5469C49.9296 71.2344 50.3671 70.8021 50.6588 70.25C50.9608 69.6979 51.1119 69.0677 51.1119 68.3594C51.1119 67.599 50.966 66.9427 50.6744 66.3906C50.3827 65.8281 49.94 65.3958 49.3463 65.0938C48.7525 64.7917 48.0025 64.6406 47.0963 64.6406H43.1275V84H38.8306V61.25ZM51.6744 84L46.4088 73.8125L50.9556 73.7969L56.2838 83.7812V84H51.6744ZM59.0144 61.25H67.28C69.0092 61.25 70.4935 61.5104 71.7331 62.0312C72.9727 62.5521 73.9258 63.3229 74.5925 64.3438C75.2592 65.3646 75.5925 66.6198 75.5925 68.1094C75.5925 69.2865 75.3842 70.3073 74.9675 71.1719C74.5508 72.0365 73.9623 72.7604 73.2019 73.3438C72.4519 73.9271 71.5665 74.3854 70.5456 74.7188L69.2019 75.4062H61.905L61.8737 72.0156H67.3269C68.2123 72.0156 68.9467 71.8594 69.53 71.5469C70.1133 71.2344 70.5508 70.8021 70.8425 70.25C71.1446 69.6979 71.2956 69.0677 71.2956 68.3594C71.2956 67.599 71.1498 66.9427 70.8581 66.3906C70.5665 65.8281 70.1237 65.3958 69.53 65.0938C68.9362 64.7917 68.1862 64.6406 67.28 64.6406H63.3112V84H59.0144V61.25ZM71.8581 84L66.5925 73.8125L71.1394 73.7969L76.4675 83.7812V84H71.8581ZM94.2763 80.625V84H82.1825V80.625H94.2763ZM83.495 61.25V84H79.1982V61.25H83.495ZM92.6982 70.6406V73.9375H82.1825V70.6406H92.6982ZM94.2294 61.25V64.6406H82.1825V61.25H94.2294ZM106.148 64.7031L99.6631 84H95.1163L103.616 61.25H106.523L106.148 64.7031ZM111.569 84L105.054 64.7031L104.663 61.25H107.585L116.132 84H111.569ZM111.273 75.5469V78.9375H99.0694V75.5469H111.273ZM132.753 80.625V84H121.316V80.625H132.753ZM122.613 61.25V84H118.316V61.25H122.613ZM150.074 84H145.167L145.199 80.625H150.074C151.397 80.625 152.506 80.3333 153.402 79.75C154.298 79.1562 154.975 78.3073 155.433 77.2031C155.891 76.0885 156.121 74.7552 156.121 73.2031V72.0312C156.121 70.8333 155.99 69.776 155.73 68.8594C155.47 67.9427 155.084 67.1719 154.574 66.5469C154.074 65.9219 153.454 65.4479 152.714 65.125C151.975 64.8021 151.126 64.6406 150.167 64.6406H145.074V61.25H150.167C151.688 61.25 153.074 61.5052 154.324 62.0156C155.584 62.526 156.673 63.2604 157.589 64.2188C158.516 65.1667 159.225 66.3021 159.714 67.625C160.214 68.9479 160.464 70.4271 160.464 72.0625V73.2031C160.464 74.8281 160.214 76.3073 159.714 77.6406C159.225 78.9635 158.516 80.099 157.589 81.0469C156.673 81.9948 155.579 82.724 154.308 83.2344C153.037 83.7448 151.626 84 150.074 84ZM147.574 61.25V84H143.277V61.25H147.574ZM182.383 72.0469V73.2188C182.383 74.9375 182.153 76.4844 181.695 77.8594C181.237 79.224 180.586 80.3854 179.742 81.3438C178.898 82.3021 177.893 83.0365 176.726 83.5469C175.56 84.0573 174.263 84.3125 172.836 84.3125C171.429 84.3125 170.138 84.0573 168.961 83.5469C167.794 83.0365 166.784 82.3021 165.929 81.3438C165.075 80.3854 164.414 79.224 163.945 77.8594C163.476 76.4844 163.242 74.9375 163.242 73.2188V72.0469C163.242 70.3177 163.476 68.7708 163.945 67.4062C164.414 66.0417 165.07 64.8802 165.914 63.9219C166.758 62.9531 167.763 62.2135 168.929 61.7031C170.106 61.1927 171.398 60.9375 172.804 60.9375C174.231 60.9375 175.528 61.1927 176.695 61.7031C177.862 62.2135 178.867 62.9531 179.711 63.9219C180.565 64.8802 181.221 66.0417 181.679 67.4062C182.148 68.7708 182.383 70.3177 182.383 72.0469ZM178.039 73.2188V72.0156C178.039 70.776 177.924 69.6875 177.695 68.75C177.466 67.8021 177.127 67.0052 176.679 66.3594C176.231 65.7135 175.679 65.2292 175.023 64.9062C174.367 64.5729 173.627 64.4062 172.804 64.4062C171.971 64.4062 171.231 64.5729 170.586 64.9062C169.95 65.2292 169.409 65.7135 168.961 66.3594C168.513 67.0052 168.169 67.8021 167.929 68.75C167.7 69.6875 167.586 70.776 167.586 72.0156V73.2188C167.586 74.4479 167.7 75.5365 167.929 76.4844C168.169 77.4323 168.513 78.2344 168.961 78.8906C169.419 79.5365 169.971 80.026 170.617 80.3594C171.263 80.6927 172.002 80.8594 172.836 80.8594C173.669 80.8594 174.409 80.6927 175.054 80.3594C175.7 80.026 176.242 79.5365 176.679 78.8906C177.127 78.2344 177.466 77.4323 177.695 76.4844C177.924 75.5365 178.039 74.4479 178.039 73.2188ZM199.176 76.5156H203.473C203.358 78.0365 202.936 79.3854 202.207 80.5625C201.478 81.7292 200.462 82.6458 199.16 83.3125C197.858 83.9792 196.28 84.3125 194.426 84.3125C192.999 84.3125 191.712 84.0625 190.566 83.5625C189.431 83.0521 188.457 82.3281 187.644 81.3906C186.842 80.4427 186.228 79.3073 185.801 77.9844C185.374 76.651 185.16 75.1562 185.16 73.5V71.7656C185.16 70.1094 185.379 68.6146 185.816 67.2812C186.254 65.9479 186.879 64.8125 187.691 63.875C188.514 62.9271 189.499 62.1979 190.644 61.6875C191.801 61.1771 193.092 60.9219 194.519 60.9219C196.374 60.9219 197.941 61.2656 199.223 61.9531C200.504 62.6302 201.499 63.5625 202.207 64.75C202.915 65.9375 203.342 67.3021 203.488 68.8438H199.191C199.108 67.8854 198.9 67.0729 198.566 66.4062C198.243 65.7396 197.754 65.2344 197.098 64.8906C196.452 64.5365 195.592 64.3594 194.519 64.3594C193.686 64.3594 192.952 64.5156 192.316 64.8281C191.691 65.1406 191.17 65.6094 190.754 66.2344C190.337 66.849 190.025 67.6198 189.816 68.5469C189.608 69.4635 189.504 70.526 189.504 71.7344V73.5C189.504 74.6562 189.598 75.6927 189.785 76.6094C189.973 77.526 190.264 78.3021 190.66 78.9375C191.056 79.5729 191.566 80.0573 192.191 80.3906C192.816 80.724 193.561 80.8906 194.426 80.8906C195.478 80.8906 196.332 80.724 196.988 80.3906C197.655 80.0573 198.16 79.5677 198.504 78.9219C198.858 78.276 199.082 77.474 199.176 76.5156ZM218.547 78.0938C218.547 77.6562 218.479 77.2656 218.344 76.9219C218.219 76.5677 217.984 76.25 217.641 75.9688C217.307 75.6771 216.833 75.3958 216.219 75.125C215.615 74.8438 214.833 74.5521 213.875 74.25C212.812 73.9167 211.823 73.5417 210.906 73.125C209.99 72.7083 209.182 72.224 208.484 71.6719C207.797 71.1198 207.26 70.4844 206.875 69.7656C206.49 69.0365 206.297 68.1927 206.297 67.2344C206.297 66.2969 206.495 65.4427 206.891 64.6719C207.297 63.901 207.87 63.2396 208.609 62.6875C209.349 62.125 210.219 61.6927 211.219 61.3906C212.229 61.0885 213.344 60.9375 214.562 60.9375C216.25 60.9375 217.708 61.2448 218.938 61.8594C220.177 62.474 221.135 63.3073 221.812 64.3594C222.49 65.4115 222.828 66.5938 222.828 67.9062H218.547C218.547 67.1979 218.396 66.5729 218.094 66.0312C217.802 65.4896 217.354 65.0625 216.75 64.75C216.156 64.4375 215.406 64.2812 214.5 64.2812C213.625 64.2812 212.896 64.4115 212.312 64.6719C211.74 64.9323 211.307 65.2865 211.016 65.7344C210.734 66.1823 210.594 66.6823 210.594 67.2344C210.594 67.651 210.693 68.026 210.891 68.3594C211.089 68.6823 211.385 68.9896 211.781 69.2812C212.177 69.5625 212.667 69.8281 213.25 70.0781C213.844 70.3177 214.531 70.5573 215.312 70.7969C216.562 71.1719 217.656 71.5885 218.594 72.0469C219.542 72.5052 220.328 73.026 220.953 73.6094C221.589 74.1927 222.062 74.849 222.375 75.5781C222.698 76.3073 222.859 77.1354 222.859 78.0625C222.859 79.0417 222.667 79.9167 222.281 80.6875C221.896 81.4583 221.344 82.1146 220.625 82.6562C219.906 83.1979 219.042 83.6094 218.031 83.8906C217.031 84.1719 215.911 84.3125 214.672 84.3125C213.568 84.3125 212.474 84.1667 211.391 83.875C210.318 83.5729 209.344 83.125 208.469 82.5312C207.594 81.9271 206.896 81.1667 206.375 80.25C205.854 79.3229 205.594 78.2396 205.594 77H209.906C209.906 77.7188 210.021 78.3333 210.25 78.8438C210.49 79.3438 210.823 79.7552 211.25 80.0781C211.688 80.3906 212.198 80.6198 212.781 80.7656C213.365 80.9115 213.995 80.9844 214.672 80.9844C215.547 80.9844 216.266 80.8646 216.828 80.625C217.401 80.375 217.828 80.0312 218.109 79.5938C218.401 79.1562 218.547 78.6562 218.547 78.0938Z" fill="#8E8E8E"/>
</g>
</svg>
